%TF.GenerationSoftware,KiCad,Pcbnew,(5.1.7)-1*%
%TF.CreationDate,2021-07-10T10:13:49+01:00*%
%TF.ProjectId,Apricot-Floppy-Converter,41707269-636f-4742-9d46-6c6f7070792d,rev?*%
%TF.SameCoordinates,Original*%
%TF.FileFunction,Copper,L2,Bot*%
%TF.FilePolarity,Positive*%
%FSLAX46Y46*%
G04 Gerber Fmt 4.6, Leading zero omitted, Abs format (unit mm)*
G04 Created by KiCad (PCBNEW (5.1.7)-1) date 2021-07-10 10:13:49*
%MOMM*%
%LPD*%
G01*
G04 APERTURE LIST*
%TA.AperFunction,ComponentPad*%
%ADD10O,1.700000X1.700000*%
%TD*%
%TA.AperFunction,ComponentPad*%
%ADD11R,1.700000X1.700000*%
%TD*%
%TA.AperFunction,ViaPad*%
%ADD12C,0.800000*%
%TD*%
%TA.AperFunction,Conductor*%
%ADD13C,0.250000*%
%TD*%
%TA.AperFunction,Conductor*%
%ADD14C,0.254000*%
%TD*%
%TA.AperFunction,Conductor*%
%ADD15C,0.100000*%
%TD*%
G04 APERTURE END LIST*
D10*
%TO.P,J3,3*%
%TO.N,Net-(J3-Pad3)*%
X137732000Y-79184500D03*
%TO.P,J3,2*%
%TO.N,Drive-Select-0*%
X140272000Y-79184500D03*
D11*
%TO.P,J3,1*%
%TO.N,Motor-Enable*%
X142812000Y-79184500D03*
%TD*%
D10*
%TO.P,J2,34*%
%TO.N,Ready*%
X137350000Y-87566000D03*
%TO.P,J2,33*%
%TO.N,GND*%
X139890000Y-87566000D03*
%TO.P,J2,32*%
%TO.N,Head-Select*%
X137350000Y-90106000D03*
%TO.P,J2,31*%
%TO.N,GND*%
X139890000Y-90106000D03*
%TO.P,J2,30*%
%TO.N,Read-Data*%
X137350000Y-92646000D03*
%TO.P,J2,29*%
%TO.N,GND*%
X139890000Y-92646000D03*
%TO.P,J2,28*%
%TO.N,Write-Protect*%
X137350000Y-95186000D03*
%TO.P,J2,27*%
%TO.N,GND*%
X139890000Y-95186000D03*
%TO.P,J2,26*%
%TO.N,Track-Zero*%
X137350000Y-97726000D03*
%TO.P,J2,25*%
%TO.N,GND*%
X139890000Y-97726000D03*
%TO.P,J2,24*%
%TO.N,Write-Enable*%
X137350000Y-100266000D03*
%TO.P,J2,23*%
%TO.N,GND*%
X139890000Y-100266000D03*
%TO.P,J2,22*%
%TO.N,Write-Data*%
X137350000Y-102806000D03*
%TO.P,J2,21*%
%TO.N,GND*%
X139890000Y-102806000D03*
%TO.P,J2,20*%
%TO.N,Step*%
X137350000Y-105346000D03*
%TO.P,J2,19*%
%TO.N,GND*%
X139890000Y-105346000D03*
%TO.P,J2,18*%
%TO.N,Direction*%
X137350000Y-107886000D03*
%TO.P,J2,17*%
%TO.N,GND*%
X139890000Y-107886000D03*
%TO.P,J2,16*%
%TO.N,Motor-Enable*%
X137350000Y-110426000D03*
%TO.P,J2,15*%
%TO.N,GND*%
X139890000Y-110426000D03*
%TO.P,J2,14*%
%TO.N,Net-(J2-Pad14)*%
X137350000Y-112966000D03*
%TO.P,J2,13*%
%TO.N,GND*%
X139890000Y-112966000D03*
%TO.P,J2,12*%
%TO.N,Drive-Select-1*%
X137350000Y-115506000D03*
%TO.P,J2,11*%
%TO.N,GND*%
X139890000Y-115506000D03*
%TO.P,J2,10*%
%TO.N,Drive-Select-0*%
X137350000Y-118046000D03*
%TO.P,J2,9*%
%TO.N,GND*%
X139890000Y-118046000D03*
%TO.P,J2,8*%
%TO.N,Index*%
X137350000Y-120586000D03*
%TO.P,J2,7*%
%TO.N,GND*%
X139890000Y-120586000D03*
%TO.P,J2,6*%
%TO.N,Net-(J2-Pad6)*%
X137350000Y-123126000D03*
%TO.P,J2,5*%
%TO.N,GND*%
X139890000Y-123126000D03*
%TO.P,J2,4*%
%TO.N,Head-Load*%
X137350000Y-125666000D03*
%TO.P,J2,3*%
%TO.N,GND*%
X139890000Y-125666000D03*
%TO.P,J2,2*%
%TO.N,Density*%
X137350000Y-128206000D03*
D11*
%TO.P,J2,1*%
%TO.N,GND*%
X139890000Y-128206000D03*
%TD*%
D10*
%TO.P,J1,26*%
%TO.N,Ready*%
X137350000Y-142812000D03*
%TO.P,J1,25*%
%TO.N,GND*%
X137350000Y-140272000D03*
%TO.P,J1,24*%
%TO.N,Read-Data*%
X139890000Y-142812000D03*
%TO.P,J1,23*%
%TO.N,GND*%
X139890000Y-140272000D03*
%TO.P,J1,22*%
%TO.N,Write-Protect*%
X142430000Y-142812000D03*
%TO.P,J1,21*%
%TO.N,GND*%
X142430000Y-140272000D03*
%TO.P,J1,20*%
%TO.N,Track-Zero*%
X144970000Y-142812000D03*
%TO.P,J1,19*%
%TO.N,GND*%
X144970000Y-140272000D03*
%TO.P,J1,18*%
%TO.N,Index*%
X147510000Y-142812000D03*
%TO.P,J1,17*%
%TO.N,GND*%
X147510000Y-140272000D03*
%TO.P,J1,16*%
%TO.N,Head-Select*%
X150050000Y-142812000D03*
%TO.P,J1,15*%
%TO.N,GND*%
X150050000Y-140272000D03*
%TO.P,J1,14*%
%TO.N,Head-Load*%
X152590000Y-142812000D03*
%TO.P,J1,13*%
%TO.N,GND*%
X152590000Y-140272000D03*
%TO.P,J1,12*%
%TO.N,Write-Enable*%
X155130000Y-142812000D03*
%TO.P,J1,11*%
%TO.N,GND*%
X155130000Y-140272000D03*
%TO.P,J1,10*%
%TO.N,Write-Data*%
X157670000Y-142812000D03*
%TO.P,J1,9*%
%TO.N,GND*%
X157670000Y-140272000D03*
%TO.P,J1,8*%
%TO.N,Step*%
X160210000Y-142812000D03*
%TO.P,J1,7*%
%TO.N,GND*%
X160210000Y-140272000D03*
%TO.P,J1,6*%
%TO.N,Direction*%
X162750000Y-142812000D03*
%TO.P,J1,5*%
%TO.N,Net-(J1-Pad5)*%
X162750000Y-140272000D03*
%TO.P,J1,4*%
%TO.N,Drive-Select-1*%
X165290000Y-142812000D03*
%TO.P,J1,3*%
%TO.N,Density*%
X165290000Y-140272000D03*
%TO.P,J1,2*%
%TO.N,Drive-Select-0*%
X167830000Y-142812000D03*
D11*
%TO.P,J1,1*%
%TO.N,Motor-Enable*%
X167830000Y-140272000D03*
%TD*%
D12*
%TO.N,GND*%
X142494000Y-137922000D03*
X147383500Y-137160000D03*
X152781000Y-138049000D03*
X139128500Y-137033000D03*
X143383000Y-113030000D03*
X144399000Y-103251000D03*
X135699500Y-91503500D03*
X134874000Y-77914500D03*
X144145000Y-82931000D03*
%TO.N,Head-Select*%
X141348200Y-100012200D03*
%TO.N,Step*%
X142037400Y-107711300D03*
%TO.N,Density*%
X151225400Y-141814200D03*
%TD*%
D13*
%TO.N,GND*%
X139890000Y-140272000D02*
X138525300Y-140272000D01*
X139890000Y-140272000D02*
X139890000Y-128206000D01*
X137350000Y-140272000D02*
X138525300Y-140272000D01*
X139890000Y-118046000D02*
X139890000Y-115506000D01*
X142430000Y-140272000D02*
X139890000Y-140272000D01*
X144970000Y-140272000D02*
X142430000Y-140272000D01*
X147510000Y-140272000D02*
X144970000Y-140272000D01*
X150050000Y-140272000D02*
X147510000Y-140272000D01*
X155130000Y-140272000D02*
X152590000Y-140272000D01*
%TO.N,Head-Select*%
X137350000Y-91281300D02*
X137717400Y-91281300D01*
X137717400Y-91281300D02*
X138525300Y-92089200D01*
X138525300Y-92089200D02*
X138525300Y-98099200D01*
X138525300Y-98099200D02*
X139327500Y-98901400D01*
X139327500Y-98901400D02*
X140237400Y-98901400D01*
X140237400Y-98901400D02*
X141348200Y-100012200D01*
X137350000Y-90106000D02*
X137350000Y-91281300D01*
%TO.N,Head-Load*%
X137350000Y-125666000D02*
X138525300Y-125666000D01*
X152590000Y-142812000D02*
X152590000Y-141636700D01*
X152590000Y-141636700D02*
X152229400Y-141636700D01*
X152229400Y-141636700D02*
X151320000Y-140727300D01*
X151320000Y-140727300D02*
X151320000Y-137457900D01*
X151320000Y-137457900D02*
X140703400Y-126841300D01*
X140703400Y-126841300D02*
X139333200Y-126841300D01*
X139333200Y-126841300D02*
X138525300Y-126033400D01*
X138525300Y-126033400D02*
X138525300Y-125666000D01*
%TO.N,Write-Enable*%
X137350000Y-100266000D02*
X137350000Y-101441300D01*
X155130000Y-142812000D02*
X156305400Y-141636600D01*
X156305400Y-141636600D02*
X158195600Y-141636600D01*
X158195600Y-141636600D02*
X158850200Y-142291200D01*
X158850200Y-142291200D02*
X158850200Y-143358500D01*
X158850200Y-143358500D02*
X157764100Y-144444600D01*
X157764100Y-144444600D02*
X136645100Y-144444600D01*
X136645100Y-144444600D02*
X134773500Y-142573000D01*
X134773500Y-142573000D02*
X134773500Y-103650500D01*
X134773500Y-103650500D02*
X136982700Y-101441300D01*
X136982700Y-101441300D02*
X137350000Y-101441300D01*
%TO.N,Write-Data*%
X137350000Y-102806000D02*
X137350000Y-103981300D01*
X157670000Y-142812000D02*
X156494700Y-142812000D01*
X156494700Y-142812000D02*
X156494700Y-143179300D01*
X156494700Y-143179300D02*
X155679800Y-143994200D01*
X155679800Y-143994200D02*
X136831600Y-143994200D01*
X136831600Y-143994200D02*
X135226700Y-142389300D01*
X135226700Y-142389300D02*
X135226700Y-105737300D01*
X135226700Y-105737300D02*
X136982700Y-103981300D01*
X136982700Y-103981300D02*
X137350000Y-103981300D01*
%TO.N,Step*%
X137350000Y-105346000D02*
X138525300Y-105346000D01*
X142037400Y-107711300D02*
X140847400Y-106521300D01*
X140847400Y-106521300D02*
X139333200Y-106521300D01*
X139333200Y-106521300D02*
X138525300Y-105713400D01*
X138525300Y-105713400D02*
X138525300Y-105346000D01*
%TO.N,Direction*%
X137350000Y-107886000D02*
X137350000Y-109061300D01*
X162750000Y-142812000D02*
X162750000Y-141636700D01*
X162750000Y-141636700D02*
X162382600Y-141636700D01*
X162382600Y-141636700D02*
X161574700Y-140828800D01*
X161574700Y-140828800D02*
X161574700Y-139955400D01*
X161574700Y-139955400D02*
X160700100Y-139080800D01*
X160700100Y-139080800D02*
X155613200Y-139080800D01*
X155613200Y-139080800D02*
X140928400Y-124396000D01*
X140928400Y-124396000D02*
X139461100Y-124396000D01*
X139461100Y-124396000D02*
X138620000Y-123554900D01*
X138620000Y-123554900D02*
X138620000Y-122713600D01*
X138620000Y-122713600D02*
X137799300Y-121892900D01*
X137799300Y-121892900D02*
X136925200Y-121892900D01*
X136925200Y-121892900D02*
X135684600Y-120652300D01*
X135684600Y-120652300D02*
X135684600Y-110359400D01*
X135684600Y-110359400D02*
X136982700Y-109061300D01*
X136982700Y-109061300D02*
X137350000Y-109061300D01*
%TO.N,Drive-Select-1*%
X137350000Y-116681300D02*
X136982600Y-116681300D01*
X136982600Y-116681300D02*
X136174700Y-117489200D01*
X136174700Y-117489200D02*
X136174700Y-118535000D01*
X136174700Y-118535000D02*
X136957700Y-119318000D01*
X136957700Y-119318000D02*
X137839500Y-119318000D01*
X137839500Y-119318000D02*
X138525300Y-120003800D01*
X138525300Y-120003800D02*
X138525300Y-120960400D01*
X138525300Y-120960400D02*
X139326300Y-121761400D01*
X139326300Y-121761400D02*
X140320000Y-121761400D01*
X140320000Y-121761400D02*
X157067300Y-138508700D01*
X157067300Y-138508700D02*
X162668000Y-138508700D01*
X162668000Y-138508700D02*
X164114700Y-139955400D01*
X164114700Y-139955400D02*
X164114700Y-140828800D01*
X164114700Y-140828800D02*
X164922600Y-141636700D01*
X164922600Y-141636700D02*
X165290000Y-141636700D01*
X165290000Y-142812000D02*
X165290000Y-141636700D01*
X137350000Y-115506000D02*
X137350000Y-116681300D01*
%TO.N,Density*%
X137350000Y-128206000D02*
X137350000Y-129381300D01*
X137350000Y-129381300D02*
X136130100Y-130601200D01*
X136130100Y-130601200D02*
X136130100Y-140722200D01*
X136130100Y-140722200D02*
X136949900Y-141542000D01*
X136949900Y-141542000D02*
X150953200Y-141542000D01*
X150953200Y-141542000D02*
X151225400Y-141814200D01*
%TO.N,Drive-Select-0*%
X138525300Y-118046000D02*
X138525300Y-118413400D01*
X138525300Y-118413400D02*
X139333200Y-119221300D01*
X139333200Y-119221300D02*
X140191900Y-119221300D01*
X140191900Y-119221300D02*
X142416900Y-121446300D01*
X142416900Y-121446300D02*
X142416900Y-123221400D01*
X142416900Y-123221400D02*
X157253800Y-138058300D01*
X157253800Y-138058300D02*
X167808300Y-138058300D01*
X167808300Y-138058300D02*
X169005400Y-139255400D01*
X169005400Y-139255400D02*
X169005400Y-141269300D01*
X169005400Y-141269300D02*
X168638000Y-141636700D01*
X168638000Y-141636700D02*
X167830000Y-141636700D01*
X137350000Y-118046000D02*
X138525300Y-118046000D01*
X167830000Y-142812000D02*
X167830000Y-141636700D01*
%TO.N,Motor-Enable*%
X141589000Y-109234400D02*
X142812000Y-108011400D01*
X142812000Y-108011400D02*
X142812000Y-80359800D01*
X138525300Y-110426000D02*
X138525300Y-110058700D01*
X138525300Y-110058700D02*
X139349600Y-109234400D01*
X139349600Y-109234400D02*
X141589000Y-109234400D01*
X167830000Y-140272000D02*
X166652000Y-141450000D01*
X166652000Y-141450000D02*
X166652000Y-143343700D01*
X166652000Y-143343700D02*
X167296700Y-143988400D01*
X167296700Y-143988400D02*
X168402900Y-143988400D01*
X168402900Y-143988400D02*
X169487500Y-142903800D01*
X169487500Y-142903800D02*
X169487500Y-139100600D01*
X169487500Y-139100600D02*
X167994800Y-137607900D01*
X167994800Y-137607900D02*
X157440300Y-137607900D01*
X157440300Y-137607900D02*
X144718800Y-124886400D01*
X144718800Y-124886400D02*
X144718800Y-112364200D01*
X144718800Y-112364200D02*
X141589000Y-109234400D01*
X137350000Y-110426000D02*
X138525300Y-110426000D01*
X142812000Y-79184500D02*
X142812000Y-80359800D01*
%TD*%
D14*
%TO.N,GND*%
X140017000Y-128079000D02*
X140037000Y-128079000D01*
X140037000Y-128333000D01*
X140017000Y-128333000D01*
X140017000Y-129532250D01*
X140175750Y-129691000D01*
X140740000Y-129694072D01*
X140864482Y-129681812D01*
X140984180Y-129645502D01*
X141094494Y-129586537D01*
X141191185Y-129507185D01*
X141270537Y-129410494D01*
X141329502Y-129300180D01*
X141365812Y-129180482D01*
X141378072Y-129056000D01*
X141375525Y-128588226D01*
X150560001Y-137772703D01*
X150560001Y-138877986D01*
X150554099Y-138875175D01*
X150406890Y-138830524D01*
X150177000Y-138951845D01*
X150177000Y-140145000D01*
X150197000Y-140145000D01*
X150197000Y-140399000D01*
X150177000Y-140399000D01*
X150177000Y-140419000D01*
X149923000Y-140419000D01*
X149923000Y-140399000D01*
X147637000Y-140399000D01*
X147637000Y-140419000D01*
X147383000Y-140419000D01*
X147383000Y-140399000D01*
X145097000Y-140399000D01*
X145097000Y-140419000D01*
X144843000Y-140419000D01*
X144843000Y-140399000D01*
X142557000Y-140399000D01*
X142557000Y-140419000D01*
X142303000Y-140419000D01*
X142303000Y-140399000D01*
X140017000Y-140399000D01*
X140017000Y-140419000D01*
X139763000Y-140419000D01*
X139763000Y-140399000D01*
X137477000Y-140399000D01*
X137477000Y-140419000D01*
X137223000Y-140419000D01*
X137223000Y-140399000D01*
X137203000Y-140399000D01*
X137203000Y-140145000D01*
X137223000Y-140145000D01*
X137223000Y-138951845D01*
X137477000Y-138951845D01*
X137477000Y-140145000D01*
X139763000Y-140145000D01*
X139763000Y-138951845D01*
X140017000Y-138951845D01*
X140017000Y-140145000D01*
X142303000Y-140145000D01*
X142303000Y-138951845D01*
X142557000Y-138951845D01*
X142557000Y-140145000D01*
X144843000Y-140145000D01*
X144843000Y-138951845D01*
X145097000Y-138951845D01*
X145097000Y-140145000D01*
X147383000Y-140145000D01*
X147383000Y-138951845D01*
X147637000Y-138951845D01*
X147637000Y-140145000D01*
X149923000Y-140145000D01*
X149923000Y-138951845D01*
X149693110Y-138830524D01*
X149545901Y-138875175D01*
X149283080Y-139000359D01*
X149049731Y-139174412D01*
X148854822Y-139390645D01*
X148780000Y-139516255D01*
X148705178Y-139390645D01*
X148510269Y-139174412D01*
X148276920Y-139000359D01*
X148014099Y-138875175D01*
X147866890Y-138830524D01*
X147637000Y-138951845D01*
X147383000Y-138951845D01*
X147153110Y-138830524D01*
X147005901Y-138875175D01*
X146743080Y-139000359D01*
X146509731Y-139174412D01*
X146314822Y-139390645D01*
X146240000Y-139516255D01*
X146165178Y-139390645D01*
X145970269Y-139174412D01*
X145736920Y-139000359D01*
X145474099Y-138875175D01*
X145326890Y-138830524D01*
X145097000Y-138951845D01*
X144843000Y-138951845D01*
X144613110Y-138830524D01*
X144465901Y-138875175D01*
X144203080Y-139000359D01*
X143969731Y-139174412D01*
X143774822Y-139390645D01*
X143700000Y-139516255D01*
X143625178Y-139390645D01*
X143430269Y-139174412D01*
X143196920Y-139000359D01*
X142934099Y-138875175D01*
X142786890Y-138830524D01*
X142557000Y-138951845D01*
X142303000Y-138951845D01*
X142073110Y-138830524D01*
X141925901Y-138875175D01*
X141663080Y-139000359D01*
X141429731Y-139174412D01*
X141234822Y-139390645D01*
X141160000Y-139516255D01*
X141085178Y-139390645D01*
X140890269Y-139174412D01*
X140656920Y-139000359D01*
X140394099Y-138875175D01*
X140246890Y-138830524D01*
X140017000Y-138951845D01*
X139763000Y-138951845D01*
X139533110Y-138830524D01*
X139385901Y-138875175D01*
X139123080Y-139000359D01*
X138889731Y-139174412D01*
X138694822Y-139390645D01*
X138620000Y-139516255D01*
X138545178Y-139390645D01*
X138350269Y-139174412D01*
X138116920Y-139000359D01*
X137854099Y-138875175D01*
X137706890Y-138830524D01*
X137477000Y-138951845D01*
X137223000Y-138951845D01*
X136993110Y-138830524D01*
X136890100Y-138861769D01*
X136890100Y-130916001D01*
X137861003Y-129945099D01*
X137890001Y-129921301D01*
X137916332Y-129889217D01*
X137984974Y-129805577D01*
X138055546Y-129673547D01*
X138067563Y-129633932D01*
X138099003Y-129530286D01*
X138103089Y-129488796D01*
X138296632Y-129359475D01*
X138428487Y-129227620D01*
X138450498Y-129300180D01*
X138509463Y-129410494D01*
X138588815Y-129507185D01*
X138685506Y-129586537D01*
X138795820Y-129645502D01*
X138915518Y-129681812D01*
X139040000Y-129694072D01*
X139604250Y-129691000D01*
X139763000Y-129532250D01*
X139763000Y-128333000D01*
X139743000Y-128333000D01*
X139743000Y-128079000D01*
X139763000Y-128079000D01*
X139763000Y-128059000D01*
X140017000Y-128059000D01*
X140017000Y-128079000D01*
%TA.AperFunction,Conductor*%
D15*
G36*
X140017000Y-128079000D02*
G01*
X140037000Y-128079000D01*
X140037000Y-128333000D01*
X140017000Y-128333000D01*
X140017000Y-129532250D01*
X140175750Y-129691000D01*
X140740000Y-129694072D01*
X140864482Y-129681812D01*
X140984180Y-129645502D01*
X141094494Y-129586537D01*
X141191185Y-129507185D01*
X141270537Y-129410494D01*
X141329502Y-129300180D01*
X141365812Y-129180482D01*
X141378072Y-129056000D01*
X141375525Y-128588226D01*
X150560001Y-137772703D01*
X150560001Y-138877986D01*
X150554099Y-138875175D01*
X150406890Y-138830524D01*
X150177000Y-138951845D01*
X150177000Y-140145000D01*
X150197000Y-140145000D01*
X150197000Y-140399000D01*
X150177000Y-140399000D01*
X150177000Y-140419000D01*
X149923000Y-140419000D01*
X149923000Y-140399000D01*
X147637000Y-140399000D01*
X147637000Y-140419000D01*
X147383000Y-140419000D01*
X147383000Y-140399000D01*
X145097000Y-140399000D01*
X145097000Y-140419000D01*
X144843000Y-140419000D01*
X144843000Y-140399000D01*
X142557000Y-140399000D01*
X142557000Y-140419000D01*
X142303000Y-140419000D01*
X142303000Y-140399000D01*
X140017000Y-140399000D01*
X140017000Y-140419000D01*
X139763000Y-140419000D01*
X139763000Y-140399000D01*
X137477000Y-140399000D01*
X137477000Y-140419000D01*
X137223000Y-140419000D01*
X137223000Y-140399000D01*
X137203000Y-140399000D01*
X137203000Y-140145000D01*
X137223000Y-140145000D01*
X137223000Y-138951845D01*
X137477000Y-138951845D01*
X137477000Y-140145000D01*
X139763000Y-140145000D01*
X139763000Y-138951845D01*
X140017000Y-138951845D01*
X140017000Y-140145000D01*
X142303000Y-140145000D01*
X142303000Y-138951845D01*
X142557000Y-138951845D01*
X142557000Y-140145000D01*
X144843000Y-140145000D01*
X144843000Y-138951845D01*
X145097000Y-138951845D01*
X145097000Y-140145000D01*
X147383000Y-140145000D01*
X147383000Y-138951845D01*
X147637000Y-138951845D01*
X147637000Y-140145000D01*
X149923000Y-140145000D01*
X149923000Y-138951845D01*
X149693110Y-138830524D01*
X149545901Y-138875175D01*
X149283080Y-139000359D01*
X149049731Y-139174412D01*
X148854822Y-139390645D01*
X148780000Y-139516255D01*
X148705178Y-139390645D01*
X148510269Y-139174412D01*
X148276920Y-139000359D01*
X148014099Y-138875175D01*
X147866890Y-138830524D01*
X147637000Y-138951845D01*
X147383000Y-138951845D01*
X147153110Y-138830524D01*
X147005901Y-138875175D01*
X146743080Y-139000359D01*
X146509731Y-139174412D01*
X146314822Y-139390645D01*
X146240000Y-139516255D01*
X146165178Y-139390645D01*
X145970269Y-139174412D01*
X145736920Y-139000359D01*
X145474099Y-138875175D01*
X145326890Y-138830524D01*
X145097000Y-138951845D01*
X144843000Y-138951845D01*
X144613110Y-138830524D01*
X144465901Y-138875175D01*
X144203080Y-139000359D01*
X143969731Y-139174412D01*
X143774822Y-139390645D01*
X143700000Y-139516255D01*
X143625178Y-139390645D01*
X143430269Y-139174412D01*
X143196920Y-139000359D01*
X142934099Y-138875175D01*
X142786890Y-138830524D01*
X142557000Y-138951845D01*
X142303000Y-138951845D01*
X142073110Y-138830524D01*
X141925901Y-138875175D01*
X141663080Y-139000359D01*
X141429731Y-139174412D01*
X141234822Y-139390645D01*
X141160000Y-139516255D01*
X141085178Y-139390645D01*
X140890269Y-139174412D01*
X140656920Y-139000359D01*
X140394099Y-138875175D01*
X140246890Y-138830524D01*
X140017000Y-138951845D01*
X139763000Y-138951845D01*
X139533110Y-138830524D01*
X139385901Y-138875175D01*
X139123080Y-139000359D01*
X138889731Y-139174412D01*
X138694822Y-139390645D01*
X138620000Y-139516255D01*
X138545178Y-139390645D01*
X138350269Y-139174412D01*
X138116920Y-139000359D01*
X137854099Y-138875175D01*
X137706890Y-138830524D01*
X137477000Y-138951845D01*
X137223000Y-138951845D01*
X136993110Y-138830524D01*
X136890100Y-138861769D01*
X136890100Y-130916001D01*
X137861003Y-129945099D01*
X137890001Y-129921301D01*
X137916332Y-129889217D01*
X137984974Y-129805577D01*
X138055546Y-129673547D01*
X138067563Y-129633932D01*
X138099003Y-129530286D01*
X138103089Y-129488796D01*
X138296632Y-129359475D01*
X138428487Y-129227620D01*
X138450498Y-129300180D01*
X138509463Y-129410494D01*
X138588815Y-129507185D01*
X138685506Y-129586537D01*
X138795820Y-129645502D01*
X138915518Y-129681812D01*
X139040000Y-129694072D01*
X139604250Y-129691000D01*
X139763000Y-129532250D01*
X139763000Y-128333000D01*
X139743000Y-128333000D01*
X139743000Y-128079000D01*
X139763000Y-128079000D01*
X139763000Y-128059000D01*
X140017000Y-128059000D01*
X140017000Y-128079000D01*
G37*
%TD.AperFunction*%
D14*
X154427346Y-138969748D02*
X154363080Y-139000359D01*
X154129731Y-139174412D01*
X153934822Y-139390645D01*
X153860000Y-139516255D01*
X153785178Y-139390645D01*
X153590269Y-139174412D01*
X153356920Y-139000359D01*
X153094099Y-138875175D01*
X152946890Y-138830524D01*
X152717000Y-138951845D01*
X152717000Y-140145000D01*
X155003000Y-140145000D01*
X155003000Y-140125000D01*
X155257000Y-140125000D01*
X155257000Y-140145000D01*
X157543000Y-140145000D01*
X157543000Y-140125000D01*
X157797000Y-140125000D01*
X157797000Y-140145000D01*
X160083000Y-140145000D01*
X160083000Y-140125000D01*
X160337000Y-140125000D01*
X160337000Y-140145000D01*
X160357000Y-140145000D01*
X160357000Y-140399000D01*
X160337000Y-140399000D01*
X160337000Y-140419000D01*
X160083000Y-140419000D01*
X160083000Y-140399000D01*
X157797000Y-140399000D01*
X157797000Y-140419000D01*
X157543000Y-140419000D01*
X157543000Y-140399000D01*
X155257000Y-140399000D01*
X155257000Y-140419000D01*
X155003000Y-140419000D01*
X155003000Y-140399000D01*
X152717000Y-140399000D01*
X152717000Y-140419000D01*
X152463000Y-140419000D01*
X152463000Y-140399000D01*
X152443000Y-140399000D01*
X152443000Y-140145000D01*
X152463000Y-140145000D01*
X152463000Y-138951845D01*
X152233110Y-138830524D01*
X152085901Y-138875175D01*
X152080000Y-138877986D01*
X152080000Y-137495225D01*
X152083676Y-137457900D01*
X152080000Y-137420575D01*
X152080000Y-137420567D01*
X152069003Y-137308914D01*
X152025546Y-137165653D01*
X151954974Y-137033624D01*
X151860001Y-136917899D01*
X151831003Y-136894101D01*
X141267204Y-126330303D01*
X141243401Y-126301299D01*
X141229692Y-126290048D01*
X141286825Y-126170099D01*
X141331476Y-126022890D01*
X141210156Y-125793002D01*
X141250601Y-125793002D01*
X154427346Y-138969748D01*
%TA.AperFunction,Conductor*%
D15*
G36*
X154427346Y-138969748D02*
G01*
X154363080Y-139000359D01*
X154129731Y-139174412D01*
X153934822Y-139390645D01*
X153860000Y-139516255D01*
X153785178Y-139390645D01*
X153590269Y-139174412D01*
X153356920Y-139000359D01*
X153094099Y-138875175D01*
X152946890Y-138830524D01*
X152717000Y-138951845D01*
X152717000Y-140145000D01*
X155003000Y-140145000D01*
X155003000Y-140125000D01*
X155257000Y-140125000D01*
X155257000Y-140145000D01*
X157543000Y-140145000D01*
X157543000Y-140125000D01*
X157797000Y-140125000D01*
X157797000Y-140145000D01*
X160083000Y-140145000D01*
X160083000Y-140125000D01*
X160337000Y-140125000D01*
X160337000Y-140145000D01*
X160357000Y-140145000D01*
X160357000Y-140399000D01*
X160337000Y-140399000D01*
X160337000Y-140419000D01*
X160083000Y-140419000D01*
X160083000Y-140399000D01*
X157797000Y-140399000D01*
X157797000Y-140419000D01*
X157543000Y-140419000D01*
X157543000Y-140399000D01*
X155257000Y-140399000D01*
X155257000Y-140419000D01*
X155003000Y-140419000D01*
X155003000Y-140399000D01*
X152717000Y-140399000D01*
X152717000Y-140419000D01*
X152463000Y-140419000D01*
X152463000Y-140399000D01*
X152443000Y-140399000D01*
X152443000Y-140145000D01*
X152463000Y-140145000D01*
X152463000Y-138951845D01*
X152233110Y-138830524D01*
X152085901Y-138875175D01*
X152080000Y-138877986D01*
X152080000Y-137495225D01*
X152083676Y-137457900D01*
X152080000Y-137420575D01*
X152080000Y-137420567D01*
X152069003Y-137308914D01*
X152025546Y-137165653D01*
X151954974Y-137033624D01*
X151860001Y-136917899D01*
X151831003Y-136894101D01*
X141267204Y-126330303D01*
X141243401Y-126301299D01*
X141229692Y-126290048D01*
X141286825Y-126170099D01*
X141331476Y-126022890D01*
X141210156Y-125793002D01*
X141250601Y-125793002D01*
X154427346Y-138969748D01*
G37*
%TD.AperFunction*%
D14*
X140017000Y-125539000D02*
X140037000Y-125539000D01*
X140037000Y-125793000D01*
X140017000Y-125793000D01*
X140017000Y-125813000D01*
X139763000Y-125813000D01*
X139763000Y-125793000D01*
X139743000Y-125793000D01*
X139743000Y-125539000D01*
X139763000Y-125539000D01*
X139763000Y-125519000D01*
X140017000Y-125519000D01*
X140017000Y-125539000D01*
%TA.AperFunction,Conductor*%
D15*
G36*
X140017000Y-125539000D02*
G01*
X140037000Y-125539000D01*
X140037000Y-125793000D01*
X140017000Y-125793000D01*
X140017000Y-125813000D01*
X139763000Y-125813000D01*
X139763000Y-125793000D01*
X139743000Y-125793000D01*
X139743000Y-125539000D01*
X139763000Y-125539000D01*
X139763000Y-125519000D01*
X140017000Y-125519000D01*
X140017000Y-125539000D01*
G37*
%TD.AperFunction*%
D14*
X143958801Y-112679003D02*
X143958800Y-123688499D01*
X143176900Y-122906599D01*
X143176900Y-121483622D01*
X143180576Y-121446299D01*
X143176900Y-121408976D01*
X143176900Y-121408967D01*
X143165903Y-121297314D01*
X143122446Y-121154053D01*
X143051874Y-121022024D01*
X142956901Y-120906299D01*
X142927904Y-120882502D01*
X141032055Y-118986654D01*
X141161641Y-118812920D01*
X141286825Y-118550099D01*
X141331476Y-118402890D01*
X141210155Y-118173000D01*
X140017000Y-118173000D01*
X140017000Y-118193000D01*
X139763000Y-118193000D01*
X139763000Y-118173000D01*
X139743000Y-118173000D01*
X139743000Y-117919000D01*
X139763000Y-117919000D01*
X139763000Y-115633000D01*
X140017000Y-115633000D01*
X140017000Y-117919000D01*
X141210155Y-117919000D01*
X141331476Y-117689110D01*
X141286825Y-117541901D01*
X141161641Y-117279080D01*
X140987588Y-117045731D01*
X140771355Y-116850822D01*
X140645745Y-116776000D01*
X140771355Y-116701178D01*
X140987588Y-116506269D01*
X141161641Y-116272920D01*
X141286825Y-116010099D01*
X141331476Y-115862890D01*
X141210155Y-115633000D01*
X140017000Y-115633000D01*
X139763000Y-115633000D01*
X139743000Y-115633000D01*
X139743000Y-115379000D01*
X139763000Y-115379000D01*
X139763000Y-113093000D01*
X140017000Y-113093000D01*
X140017000Y-115379000D01*
X141210155Y-115379000D01*
X141331476Y-115149110D01*
X141286825Y-115001901D01*
X141161641Y-114739080D01*
X140987588Y-114505731D01*
X140771355Y-114310822D01*
X140645745Y-114236000D01*
X140771355Y-114161178D01*
X140987588Y-113966269D01*
X141161641Y-113732920D01*
X141286825Y-113470099D01*
X141331476Y-113322890D01*
X141210155Y-113093000D01*
X140017000Y-113093000D01*
X139763000Y-113093000D01*
X139743000Y-113093000D01*
X139743000Y-112839000D01*
X139763000Y-112839000D01*
X139763000Y-110553000D01*
X140017000Y-110553000D01*
X140017000Y-112839000D01*
X141210155Y-112839000D01*
X141331476Y-112609110D01*
X141286825Y-112461901D01*
X141161641Y-112199080D01*
X140987588Y-111965731D01*
X140771355Y-111770822D01*
X140645745Y-111696000D01*
X140771355Y-111621178D01*
X140987588Y-111426269D01*
X141161641Y-111192920D01*
X141286825Y-110930099D01*
X141331476Y-110782890D01*
X141210155Y-110553000D01*
X140017000Y-110553000D01*
X139763000Y-110553000D01*
X139743000Y-110553000D01*
X139743000Y-110299000D01*
X139763000Y-110299000D01*
X139763000Y-110279000D01*
X140017000Y-110279000D01*
X140017000Y-110299000D01*
X141210155Y-110299000D01*
X141331476Y-110069110D01*
X141323886Y-110044087D01*
X143958801Y-112679003D01*
%TA.AperFunction,Conductor*%
D15*
G36*
X143958801Y-112679003D02*
G01*
X143958800Y-123688499D01*
X143176900Y-122906599D01*
X143176900Y-121483622D01*
X143180576Y-121446299D01*
X143176900Y-121408976D01*
X143176900Y-121408967D01*
X143165903Y-121297314D01*
X143122446Y-121154053D01*
X143051874Y-121022024D01*
X142956901Y-120906299D01*
X142927904Y-120882502D01*
X141032055Y-118986654D01*
X141161641Y-118812920D01*
X141286825Y-118550099D01*
X141331476Y-118402890D01*
X141210155Y-118173000D01*
X140017000Y-118173000D01*
X140017000Y-118193000D01*
X139763000Y-118193000D01*
X139763000Y-118173000D01*
X139743000Y-118173000D01*
X139743000Y-117919000D01*
X139763000Y-117919000D01*
X139763000Y-115633000D01*
X140017000Y-115633000D01*
X140017000Y-117919000D01*
X141210155Y-117919000D01*
X141331476Y-117689110D01*
X141286825Y-117541901D01*
X141161641Y-117279080D01*
X140987588Y-117045731D01*
X140771355Y-116850822D01*
X140645745Y-116776000D01*
X140771355Y-116701178D01*
X140987588Y-116506269D01*
X141161641Y-116272920D01*
X141286825Y-116010099D01*
X141331476Y-115862890D01*
X141210155Y-115633000D01*
X140017000Y-115633000D01*
X139763000Y-115633000D01*
X139743000Y-115633000D01*
X139743000Y-115379000D01*
X139763000Y-115379000D01*
X139763000Y-113093000D01*
X140017000Y-113093000D01*
X140017000Y-115379000D01*
X141210155Y-115379000D01*
X141331476Y-115149110D01*
X141286825Y-115001901D01*
X141161641Y-114739080D01*
X140987588Y-114505731D01*
X140771355Y-114310822D01*
X140645745Y-114236000D01*
X140771355Y-114161178D01*
X140987588Y-113966269D01*
X141161641Y-113732920D01*
X141286825Y-113470099D01*
X141331476Y-113322890D01*
X141210155Y-113093000D01*
X140017000Y-113093000D01*
X139763000Y-113093000D01*
X139743000Y-113093000D01*
X139743000Y-112839000D01*
X139763000Y-112839000D01*
X139763000Y-110553000D01*
X140017000Y-110553000D01*
X140017000Y-112839000D01*
X141210155Y-112839000D01*
X141331476Y-112609110D01*
X141286825Y-112461901D01*
X141161641Y-112199080D01*
X140987588Y-111965731D01*
X140771355Y-111770822D01*
X140645745Y-111696000D01*
X140771355Y-111621178D01*
X140987588Y-111426269D01*
X141161641Y-111192920D01*
X141286825Y-110930099D01*
X141331476Y-110782890D01*
X141210155Y-110553000D01*
X140017000Y-110553000D01*
X139763000Y-110553000D01*
X139743000Y-110553000D01*
X139743000Y-110299000D01*
X139763000Y-110299000D01*
X139763000Y-110279000D01*
X140017000Y-110279000D01*
X140017000Y-110299000D01*
X141210155Y-110299000D01*
X141331476Y-110069110D01*
X141323886Y-110044087D01*
X143958801Y-112679003D01*
G37*
%TD.AperFunction*%
D14*
X140017000Y-122999000D02*
X140037000Y-122999000D01*
X140037000Y-123253000D01*
X140017000Y-123253000D01*
X140017000Y-123273000D01*
X139763000Y-123273000D01*
X139763000Y-123253000D01*
X139743000Y-123253000D01*
X139743000Y-122999000D01*
X139763000Y-122999000D01*
X139763000Y-122979000D01*
X140017000Y-122979000D01*
X140017000Y-122999000D01*
%TA.AperFunction,Conductor*%
D15*
G36*
X140017000Y-122999000D02*
G01*
X140037000Y-122999000D01*
X140037000Y-123253000D01*
X140017000Y-123253000D01*
X140017000Y-123273000D01*
X139763000Y-123273000D01*
X139763000Y-123253000D01*
X139743000Y-123253000D01*
X139743000Y-122999000D01*
X139763000Y-122999000D01*
X139763000Y-122979000D01*
X140017000Y-122979000D01*
X140017000Y-122999000D01*
G37*
%TD.AperFunction*%
D14*
X140017000Y-120459000D02*
X140037000Y-120459000D01*
X140037000Y-120713000D01*
X140017000Y-120713000D01*
X140017000Y-120733000D01*
X139763000Y-120733000D01*
X139763000Y-120713000D01*
X139743000Y-120713000D01*
X139743000Y-120459000D01*
X139763000Y-120459000D01*
X139763000Y-120439000D01*
X140017000Y-120439000D01*
X140017000Y-120459000D01*
%TA.AperFunction,Conductor*%
D15*
G36*
X140017000Y-120459000D02*
G01*
X140037000Y-120459000D01*
X140037000Y-120713000D01*
X140017000Y-120713000D01*
X140017000Y-120733000D01*
X139763000Y-120733000D01*
X139763000Y-120713000D01*
X139743000Y-120713000D01*
X139743000Y-120459000D01*
X139763000Y-120459000D01*
X139763000Y-120439000D01*
X140017000Y-120439000D01*
X140017000Y-120459000D01*
G37*
%TD.AperFunction*%
D14*
X144755000Y-111325598D02*
X142663801Y-109234400D01*
X143323004Y-108575198D01*
X143352001Y-108551401D01*
X143446974Y-108435676D01*
X143517546Y-108303647D01*
X143561003Y-108160386D01*
X143572000Y-108048733D01*
X143572000Y-108048724D01*
X143575676Y-108011401D01*
X143572000Y-107974078D01*
X143572000Y-80672572D01*
X143662000Y-80672572D01*
X143786482Y-80660312D01*
X143906180Y-80624002D01*
X144016494Y-80565037D01*
X144113185Y-80485685D01*
X144192537Y-80388994D01*
X144251502Y-80278680D01*
X144287812Y-80158982D01*
X144300072Y-80034500D01*
X144300072Y-78334500D01*
X144287812Y-78210018D01*
X144251502Y-78090320D01*
X144192537Y-77980006D01*
X144113185Y-77883315D01*
X144016494Y-77803963D01*
X143906180Y-77744998D01*
X143786482Y-77708688D01*
X143662000Y-77696428D01*
X141962000Y-77696428D01*
X141837518Y-77708688D01*
X141717820Y-77744998D01*
X141607506Y-77803963D01*
X141510815Y-77883315D01*
X141431463Y-77980006D01*
X141372498Y-78090320D01*
X141350487Y-78162880D01*
X141218632Y-78031025D01*
X140975411Y-77868510D01*
X140705158Y-77756568D01*
X140418260Y-77699500D01*
X140125740Y-77699500D01*
X139838842Y-77756568D01*
X139568589Y-77868510D01*
X139325368Y-78031025D01*
X139118525Y-78237868D01*
X139002000Y-78412260D01*
X138885475Y-78237868D01*
X138678632Y-78031025D01*
X138435411Y-77868510D01*
X138165158Y-77756568D01*
X137878260Y-77699500D01*
X137585740Y-77699500D01*
X137298842Y-77756568D01*
X137028589Y-77868510D01*
X136785368Y-78031025D01*
X136578525Y-78237868D01*
X136416010Y-78481089D01*
X136304068Y-78751342D01*
X136247000Y-79038240D01*
X136247000Y-79330760D01*
X136304068Y-79617658D01*
X136416010Y-79887911D01*
X136578525Y-80131132D01*
X136785368Y-80337975D01*
X137028589Y-80500490D01*
X137298842Y-80612432D01*
X137585740Y-80669500D01*
X137878260Y-80669500D01*
X138165158Y-80612432D01*
X138435411Y-80500490D01*
X138678632Y-80337975D01*
X138885475Y-80131132D01*
X139002000Y-79956740D01*
X139118525Y-80131132D01*
X139325368Y-80337975D01*
X139568589Y-80500490D01*
X139838842Y-80612432D01*
X140125740Y-80669500D01*
X140418260Y-80669500D01*
X140705158Y-80612432D01*
X140975411Y-80500490D01*
X141218632Y-80337975D01*
X141350487Y-80206120D01*
X141372498Y-80278680D01*
X141431463Y-80388994D01*
X141510815Y-80485685D01*
X141607506Y-80565037D01*
X141717820Y-80624002D01*
X141837518Y-80660312D01*
X141962000Y-80672572D01*
X142052001Y-80672572D01*
X142052000Y-99252289D01*
X142007974Y-99208263D01*
X141838456Y-99094995D01*
X141650098Y-99016974D01*
X141450139Y-98977200D01*
X141388002Y-98977200D01*
X141051451Y-98640649D01*
X141161641Y-98492920D01*
X141286825Y-98230099D01*
X141331476Y-98082890D01*
X141210155Y-97853000D01*
X140017000Y-97853000D01*
X140017000Y-97873000D01*
X139763000Y-97873000D01*
X139763000Y-97853000D01*
X139743000Y-97853000D01*
X139743000Y-97599000D01*
X139763000Y-97599000D01*
X139763000Y-95313000D01*
X140017000Y-95313000D01*
X140017000Y-97599000D01*
X141210155Y-97599000D01*
X141331476Y-97369110D01*
X141286825Y-97221901D01*
X141161641Y-96959080D01*
X140987588Y-96725731D01*
X140771355Y-96530822D01*
X140645745Y-96456000D01*
X140771355Y-96381178D01*
X140987588Y-96186269D01*
X141161641Y-95952920D01*
X141286825Y-95690099D01*
X141331476Y-95542890D01*
X141210155Y-95313000D01*
X140017000Y-95313000D01*
X139763000Y-95313000D01*
X139743000Y-95313000D01*
X139743000Y-95059000D01*
X139763000Y-95059000D01*
X139763000Y-92773000D01*
X140017000Y-92773000D01*
X140017000Y-95059000D01*
X141210155Y-95059000D01*
X141331476Y-94829110D01*
X141286825Y-94681901D01*
X141161641Y-94419080D01*
X140987588Y-94185731D01*
X140771355Y-93990822D01*
X140645745Y-93916000D01*
X140771355Y-93841178D01*
X140987588Y-93646269D01*
X141161641Y-93412920D01*
X141286825Y-93150099D01*
X141331476Y-93002890D01*
X141210155Y-92773000D01*
X140017000Y-92773000D01*
X139763000Y-92773000D01*
X139743000Y-92773000D01*
X139743000Y-92519000D01*
X139763000Y-92519000D01*
X139763000Y-90233000D01*
X140017000Y-90233000D01*
X140017000Y-92519000D01*
X141210155Y-92519000D01*
X141331476Y-92289110D01*
X141286825Y-92141901D01*
X141161641Y-91879080D01*
X140987588Y-91645731D01*
X140771355Y-91450822D01*
X140645745Y-91376000D01*
X140771355Y-91301178D01*
X140987588Y-91106269D01*
X141161641Y-90872920D01*
X141286825Y-90610099D01*
X141331476Y-90462890D01*
X141210155Y-90233000D01*
X140017000Y-90233000D01*
X139763000Y-90233000D01*
X139743000Y-90233000D01*
X139743000Y-89979000D01*
X139763000Y-89979000D01*
X139763000Y-87693000D01*
X140017000Y-87693000D01*
X140017000Y-89979000D01*
X141210155Y-89979000D01*
X141331476Y-89749110D01*
X141286825Y-89601901D01*
X141161641Y-89339080D01*
X140987588Y-89105731D01*
X140771355Y-88910822D01*
X140645745Y-88836000D01*
X140771355Y-88761178D01*
X140987588Y-88566269D01*
X141161641Y-88332920D01*
X141286825Y-88070099D01*
X141331476Y-87922890D01*
X141210155Y-87693000D01*
X140017000Y-87693000D01*
X139763000Y-87693000D01*
X139743000Y-87693000D01*
X139743000Y-87439000D01*
X139763000Y-87439000D01*
X139763000Y-86245186D01*
X140017000Y-86245186D01*
X140017000Y-87439000D01*
X141210155Y-87439000D01*
X141331476Y-87209110D01*
X141286825Y-87061901D01*
X141161641Y-86799080D01*
X140987588Y-86565731D01*
X140771355Y-86370822D01*
X140521252Y-86221843D01*
X140246891Y-86124519D01*
X140017000Y-86245186D01*
X139763000Y-86245186D01*
X139533109Y-86124519D01*
X139258748Y-86221843D01*
X139008645Y-86370822D01*
X138792412Y-86565731D01*
X138621100Y-86795406D01*
X138503475Y-86619368D01*
X138296632Y-86412525D01*
X138053411Y-86250010D01*
X137783158Y-86138068D01*
X137496260Y-86081000D01*
X137203740Y-86081000D01*
X136916842Y-86138068D01*
X136646589Y-86250010D01*
X136403368Y-86412525D01*
X136196525Y-86619368D01*
X136034010Y-86862589D01*
X135922068Y-87132842D01*
X135865000Y-87419740D01*
X135865000Y-87712260D01*
X135922068Y-87999158D01*
X136034010Y-88269411D01*
X136196525Y-88512632D01*
X136403368Y-88719475D01*
X136577760Y-88836000D01*
X136403368Y-88952525D01*
X136196525Y-89159368D01*
X136034010Y-89402589D01*
X135922068Y-89672842D01*
X135865000Y-89959740D01*
X135865000Y-90252260D01*
X135922068Y-90539158D01*
X136034010Y-90809411D01*
X136196525Y-91052632D01*
X136403368Y-91259475D01*
X136577760Y-91376000D01*
X136403368Y-91492525D01*
X136196525Y-91699368D01*
X136034010Y-91942589D01*
X135922068Y-92212842D01*
X135865000Y-92499740D01*
X135865000Y-92792260D01*
X135922068Y-93079158D01*
X136034010Y-93349411D01*
X136196525Y-93592632D01*
X136403368Y-93799475D01*
X136577760Y-93916000D01*
X136403368Y-94032525D01*
X136196525Y-94239368D01*
X136034010Y-94482589D01*
X135922068Y-94752842D01*
X135865000Y-95039740D01*
X135865000Y-95332260D01*
X135922068Y-95619158D01*
X136034010Y-95889411D01*
X136196525Y-96132632D01*
X136403368Y-96339475D01*
X136577760Y-96456000D01*
X136403368Y-96572525D01*
X136196525Y-96779368D01*
X136034010Y-97022589D01*
X135922068Y-97292842D01*
X135865000Y-97579740D01*
X135865000Y-97872260D01*
X135922068Y-98159158D01*
X136034010Y-98429411D01*
X136196525Y-98672632D01*
X136403368Y-98879475D01*
X136577760Y-98996000D01*
X136403368Y-99112525D01*
X136196525Y-99319368D01*
X136034010Y-99562589D01*
X135922068Y-99832842D01*
X135865000Y-100119740D01*
X135865000Y-100412260D01*
X135922068Y-100699158D01*
X136034010Y-100969411D01*
X136172509Y-101176689D01*
X134262498Y-103086701D01*
X134233500Y-103110499D01*
X134209702Y-103139497D01*
X134209701Y-103139498D01*
X134138526Y-103226224D01*
X134067954Y-103358254D01*
X134024498Y-103501515D01*
X134010000Y-103648713D01*
X134010000Y-76860000D01*
X144755001Y-76860000D01*
X144755000Y-111325598D01*
%TA.AperFunction,Conductor*%
D15*
G36*
X144755000Y-111325598D02*
G01*
X142663801Y-109234400D01*
X143323004Y-108575198D01*
X143352001Y-108551401D01*
X143446974Y-108435676D01*
X143517546Y-108303647D01*
X143561003Y-108160386D01*
X143572000Y-108048733D01*
X143572000Y-108048724D01*
X143575676Y-108011401D01*
X143572000Y-107974078D01*
X143572000Y-80672572D01*
X143662000Y-80672572D01*
X143786482Y-80660312D01*
X143906180Y-80624002D01*
X144016494Y-80565037D01*
X144113185Y-80485685D01*
X144192537Y-80388994D01*
X144251502Y-80278680D01*
X144287812Y-80158982D01*
X144300072Y-80034500D01*
X144300072Y-78334500D01*
X144287812Y-78210018D01*
X144251502Y-78090320D01*
X144192537Y-77980006D01*
X144113185Y-77883315D01*
X144016494Y-77803963D01*
X143906180Y-77744998D01*
X143786482Y-77708688D01*
X143662000Y-77696428D01*
X141962000Y-77696428D01*
X141837518Y-77708688D01*
X141717820Y-77744998D01*
X141607506Y-77803963D01*
X141510815Y-77883315D01*
X141431463Y-77980006D01*
X141372498Y-78090320D01*
X141350487Y-78162880D01*
X141218632Y-78031025D01*
X140975411Y-77868510D01*
X140705158Y-77756568D01*
X140418260Y-77699500D01*
X140125740Y-77699500D01*
X139838842Y-77756568D01*
X139568589Y-77868510D01*
X139325368Y-78031025D01*
X139118525Y-78237868D01*
X139002000Y-78412260D01*
X138885475Y-78237868D01*
X138678632Y-78031025D01*
X138435411Y-77868510D01*
X138165158Y-77756568D01*
X137878260Y-77699500D01*
X137585740Y-77699500D01*
X137298842Y-77756568D01*
X137028589Y-77868510D01*
X136785368Y-78031025D01*
X136578525Y-78237868D01*
X136416010Y-78481089D01*
X136304068Y-78751342D01*
X136247000Y-79038240D01*
X136247000Y-79330760D01*
X136304068Y-79617658D01*
X136416010Y-79887911D01*
X136578525Y-80131132D01*
X136785368Y-80337975D01*
X137028589Y-80500490D01*
X137298842Y-80612432D01*
X137585740Y-80669500D01*
X137878260Y-80669500D01*
X138165158Y-80612432D01*
X138435411Y-80500490D01*
X138678632Y-80337975D01*
X138885475Y-80131132D01*
X139002000Y-79956740D01*
X139118525Y-80131132D01*
X139325368Y-80337975D01*
X139568589Y-80500490D01*
X139838842Y-80612432D01*
X140125740Y-80669500D01*
X140418260Y-80669500D01*
X140705158Y-80612432D01*
X140975411Y-80500490D01*
X141218632Y-80337975D01*
X141350487Y-80206120D01*
X141372498Y-80278680D01*
X141431463Y-80388994D01*
X141510815Y-80485685D01*
X141607506Y-80565037D01*
X141717820Y-80624002D01*
X141837518Y-80660312D01*
X141962000Y-80672572D01*
X142052001Y-80672572D01*
X142052000Y-99252289D01*
X142007974Y-99208263D01*
X141838456Y-99094995D01*
X141650098Y-99016974D01*
X141450139Y-98977200D01*
X141388002Y-98977200D01*
X141051451Y-98640649D01*
X141161641Y-98492920D01*
X141286825Y-98230099D01*
X141331476Y-98082890D01*
X141210155Y-97853000D01*
X140017000Y-97853000D01*
X140017000Y-97873000D01*
X139763000Y-97873000D01*
X139763000Y-97853000D01*
X139743000Y-97853000D01*
X139743000Y-97599000D01*
X139763000Y-97599000D01*
X139763000Y-95313000D01*
X140017000Y-95313000D01*
X140017000Y-97599000D01*
X141210155Y-97599000D01*
X141331476Y-97369110D01*
X141286825Y-97221901D01*
X141161641Y-96959080D01*
X140987588Y-96725731D01*
X140771355Y-96530822D01*
X140645745Y-96456000D01*
X140771355Y-96381178D01*
X140987588Y-96186269D01*
X141161641Y-95952920D01*
X141286825Y-95690099D01*
X141331476Y-95542890D01*
X141210155Y-95313000D01*
X140017000Y-95313000D01*
X139763000Y-95313000D01*
X139743000Y-95313000D01*
X139743000Y-95059000D01*
X139763000Y-95059000D01*
X139763000Y-92773000D01*
X140017000Y-92773000D01*
X140017000Y-95059000D01*
X141210155Y-95059000D01*
X141331476Y-94829110D01*
X141286825Y-94681901D01*
X141161641Y-94419080D01*
X140987588Y-94185731D01*
X140771355Y-93990822D01*
X140645745Y-93916000D01*
X140771355Y-93841178D01*
X140987588Y-93646269D01*
X141161641Y-93412920D01*
X141286825Y-93150099D01*
X141331476Y-93002890D01*
X141210155Y-92773000D01*
X140017000Y-92773000D01*
X139763000Y-92773000D01*
X139743000Y-92773000D01*
X139743000Y-92519000D01*
X139763000Y-92519000D01*
X139763000Y-90233000D01*
X140017000Y-90233000D01*
X140017000Y-92519000D01*
X141210155Y-92519000D01*
X141331476Y-92289110D01*
X141286825Y-92141901D01*
X141161641Y-91879080D01*
X140987588Y-91645731D01*
X140771355Y-91450822D01*
X140645745Y-91376000D01*
X140771355Y-91301178D01*
X140987588Y-91106269D01*
X141161641Y-90872920D01*
X141286825Y-90610099D01*
X141331476Y-90462890D01*
X141210155Y-90233000D01*
X140017000Y-90233000D01*
X139763000Y-90233000D01*
X139743000Y-90233000D01*
X139743000Y-89979000D01*
X139763000Y-89979000D01*
X139763000Y-87693000D01*
X140017000Y-87693000D01*
X140017000Y-89979000D01*
X141210155Y-89979000D01*
X141331476Y-89749110D01*
X141286825Y-89601901D01*
X141161641Y-89339080D01*
X140987588Y-89105731D01*
X140771355Y-88910822D01*
X140645745Y-88836000D01*
X140771355Y-88761178D01*
X140987588Y-88566269D01*
X141161641Y-88332920D01*
X141286825Y-88070099D01*
X141331476Y-87922890D01*
X141210155Y-87693000D01*
X140017000Y-87693000D01*
X139763000Y-87693000D01*
X139743000Y-87693000D01*
X139743000Y-87439000D01*
X139763000Y-87439000D01*
X139763000Y-86245186D01*
X140017000Y-86245186D01*
X140017000Y-87439000D01*
X141210155Y-87439000D01*
X141331476Y-87209110D01*
X141286825Y-87061901D01*
X141161641Y-86799080D01*
X140987588Y-86565731D01*
X140771355Y-86370822D01*
X140521252Y-86221843D01*
X140246891Y-86124519D01*
X140017000Y-86245186D01*
X139763000Y-86245186D01*
X139533109Y-86124519D01*
X139258748Y-86221843D01*
X139008645Y-86370822D01*
X138792412Y-86565731D01*
X138621100Y-86795406D01*
X138503475Y-86619368D01*
X138296632Y-86412525D01*
X138053411Y-86250010D01*
X137783158Y-86138068D01*
X137496260Y-86081000D01*
X137203740Y-86081000D01*
X136916842Y-86138068D01*
X136646589Y-86250010D01*
X136403368Y-86412525D01*
X136196525Y-86619368D01*
X136034010Y-86862589D01*
X135922068Y-87132842D01*
X135865000Y-87419740D01*
X135865000Y-87712260D01*
X135922068Y-87999158D01*
X136034010Y-88269411D01*
X136196525Y-88512632D01*
X136403368Y-88719475D01*
X136577760Y-88836000D01*
X136403368Y-88952525D01*
X136196525Y-89159368D01*
X136034010Y-89402589D01*
X135922068Y-89672842D01*
X135865000Y-89959740D01*
X135865000Y-90252260D01*
X135922068Y-90539158D01*
X136034010Y-90809411D01*
X136196525Y-91052632D01*
X136403368Y-91259475D01*
X136577760Y-91376000D01*
X136403368Y-91492525D01*
X136196525Y-91699368D01*
X136034010Y-91942589D01*
X135922068Y-92212842D01*
X135865000Y-92499740D01*
X135865000Y-92792260D01*
X135922068Y-93079158D01*
X136034010Y-93349411D01*
X136196525Y-93592632D01*
X136403368Y-93799475D01*
X136577760Y-93916000D01*
X136403368Y-94032525D01*
X136196525Y-94239368D01*
X136034010Y-94482589D01*
X135922068Y-94752842D01*
X135865000Y-95039740D01*
X135865000Y-95332260D01*
X135922068Y-95619158D01*
X136034010Y-95889411D01*
X136196525Y-96132632D01*
X136403368Y-96339475D01*
X136577760Y-96456000D01*
X136403368Y-96572525D01*
X136196525Y-96779368D01*
X136034010Y-97022589D01*
X135922068Y-97292842D01*
X135865000Y-97579740D01*
X135865000Y-97872260D01*
X135922068Y-98159158D01*
X136034010Y-98429411D01*
X136196525Y-98672632D01*
X136403368Y-98879475D01*
X136577760Y-98996000D01*
X136403368Y-99112525D01*
X136196525Y-99319368D01*
X136034010Y-99562589D01*
X135922068Y-99832842D01*
X135865000Y-100119740D01*
X135865000Y-100412260D01*
X135922068Y-100699158D01*
X136034010Y-100969411D01*
X136172509Y-101176689D01*
X134262498Y-103086701D01*
X134233500Y-103110499D01*
X134209702Y-103139497D01*
X134209701Y-103139498D01*
X134138526Y-103226224D01*
X134067954Y-103358254D01*
X134024498Y-103501515D01*
X134010000Y-103648713D01*
X134010000Y-76860000D01*
X144755001Y-76860000D01*
X144755000Y-111325598D01*
G37*
%TD.AperFunction*%
D14*
X140017000Y-107759000D02*
X140037000Y-107759000D01*
X140037000Y-108013000D01*
X140017000Y-108013000D01*
X140017000Y-108033000D01*
X139763000Y-108033000D01*
X139763000Y-108013000D01*
X139743000Y-108013000D01*
X139743000Y-107759000D01*
X139763000Y-107759000D01*
X139763000Y-107739000D01*
X140017000Y-107739000D01*
X140017000Y-107759000D01*
%TA.AperFunction,Conductor*%
D15*
G36*
X140017000Y-107759000D02*
G01*
X140037000Y-107759000D01*
X140037000Y-108013000D01*
X140017000Y-108013000D01*
X140017000Y-108033000D01*
X139763000Y-108033000D01*
X139763000Y-108013000D01*
X139743000Y-108013000D01*
X139743000Y-107759000D01*
X139763000Y-107759000D01*
X139763000Y-107739000D01*
X140017000Y-107739000D01*
X140017000Y-107759000D01*
G37*
%TD.AperFunction*%
D14*
X140017000Y-100139000D02*
X140037000Y-100139000D01*
X140037000Y-100393000D01*
X140017000Y-100393000D01*
X140017000Y-102679000D01*
X141210155Y-102679000D01*
X141331476Y-102449110D01*
X141286825Y-102301901D01*
X141161641Y-102039080D01*
X140987588Y-101805731D01*
X140771355Y-101610822D01*
X140645745Y-101536000D01*
X140771355Y-101461178D01*
X140987588Y-101266269D01*
X141161641Y-101032920D01*
X141162751Y-101030589D01*
X141246261Y-101047200D01*
X141450139Y-101047200D01*
X141650098Y-101007426D01*
X141838456Y-100929405D01*
X142007974Y-100816137D01*
X142052000Y-100772111D01*
X142052000Y-106651098D01*
X141411204Y-106010303D01*
X141387401Y-105981299D01*
X141271676Y-105886326D01*
X141269997Y-105885429D01*
X141286825Y-105850099D01*
X141331476Y-105702890D01*
X141210155Y-105473000D01*
X140017000Y-105473000D01*
X140017000Y-105493000D01*
X139763000Y-105493000D01*
X139763000Y-105473000D01*
X139743000Y-105473000D01*
X139743000Y-105219000D01*
X139763000Y-105219000D01*
X139763000Y-102933000D01*
X140017000Y-102933000D01*
X140017000Y-105219000D01*
X141210155Y-105219000D01*
X141331476Y-104989110D01*
X141286825Y-104841901D01*
X141161641Y-104579080D01*
X140987588Y-104345731D01*
X140771355Y-104150822D01*
X140645745Y-104076000D01*
X140771355Y-104001178D01*
X140987588Y-103806269D01*
X141161641Y-103572920D01*
X141286825Y-103310099D01*
X141331476Y-103162890D01*
X141210155Y-102933000D01*
X140017000Y-102933000D01*
X139763000Y-102933000D01*
X139743000Y-102933000D01*
X139743000Y-102679000D01*
X139763000Y-102679000D01*
X139763000Y-100393000D01*
X139743000Y-100393000D01*
X139743000Y-100139000D01*
X139763000Y-100139000D01*
X139763000Y-100119000D01*
X140017000Y-100119000D01*
X140017000Y-100139000D01*
%TA.AperFunction,Conductor*%
D15*
G36*
X140017000Y-100139000D02*
G01*
X140037000Y-100139000D01*
X140037000Y-100393000D01*
X140017000Y-100393000D01*
X140017000Y-102679000D01*
X141210155Y-102679000D01*
X141331476Y-102449110D01*
X141286825Y-102301901D01*
X141161641Y-102039080D01*
X140987588Y-101805731D01*
X140771355Y-101610822D01*
X140645745Y-101536000D01*
X140771355Y-101461178D01*
X140987588Y-101266269D01*
X141161641Y-101032920D01*
X141162751Y-101030589D01*
X141246261Y-101047200D01*
X141450139Y-101047200D01*
X141650098Y-101007426D01*
X141838456Y-100929405D01*
X142007974Y-100816137D01*
X142052000Y-100772111D01*
X142052000Y-106651098D01*
X141411204Y-106010303D01*
X141387401Y-105981299D01*
X141271676Y-105886326D01*
X141269997Y-105885429D01*
X141286825Y-105850099D01*
X141331476Y-105702890D01*
X141210155Y-105473000D01*
X140017000Y-105473000D01*
X140017000Y-105493000D01*
X139763000Y-105493000D01*
X139763000Y-105473000D01*
X139743000Y-105473000D01*
X139743000Y-105219000D01*
X139763000Y-105219000D01*
X139763000Y-102933000D01*
X140017000Y-102933000D01*
X140017000Y-105219000D01*
X141210155Y-105219000D01*
X141331476Y-104989110D01*
X141286825Y-104841901D01*
X141161641Y-104579080D01*
X140987588Y-104345731D01*
X140771355Y-104150822D01*
X140645745Y-104076000D01*
X140771355Y-104001178D01*
X140987588Y-103806269D01*
X141161641Y-103572920D01*
X141286825Y-103310099D01*
X141331476Y-103162890D01*
X141210155Y-102933000D01*
X140017000Y-102933000D01*
X139763000Y-102933000D01*
X139743000Y-102933000D01*
X139743000Y-102679000D01*
X139763000Y-102679000D01*
X139763000Y-100393000D01*
X139743000Y-100393000D01*
X139743000Y-100139000D01*
X139763000Y-100139000D01*
X139763000Y-100119000D01*
X140017000Y-100119000D01*
X140017000Y-100139000D01*
G37*
%TD.AperFunction*%
%TD*%
M02*
