%TF.GenerationSoftware,KiCad,Pcbnew,(5.1.7)-1*%
%TF.CreationDate,2021-07-10T10:13:49+01:00*%
%TF.ProjectId,Apricot-Floppy-Converter,41707269-636f-4742-9d46-6c6f7070792d,rev?*%
%TF.SameCoordinates,Original*%
%TF.FileFunction,Legend,Top*%
%TF.FilePolarity,Positive*%
%FSLAX46Y46*%
G04 Gerber Fmt 4.6, Leading zero omitted, Abs format (unit mm)*
G04 Created by KiCad (PCBNEW (5.1.7)-1) date 2021-07-10 10:13:49*
%MOMM*%
%LPD*%
G01*
G04 APERTURE LIST*
%ADD10C,0.150000*%
%ADD11C,0.120000*%
G04 APERTURE END LIST*
D10*
X141954357Y-81986380D02*
X141954357Y-80986380D01*
X142287690Y-81700666D01*
X142621023Y-80986380D01*
X142621023Y-81986380D01*
X143287690Y-80986380D02*
X143478166Y-80986380D01*
X143573404Y-81034000D01*
X143668642Y-81129238D01*
X143716261Y-81319714D01*
X143716261Y-81653047D01*
X143668642Y-81843523D01*
X143573404Y-81938761D01*
X143478166Y-81986380D01*
X143287690Y-81986380D01*
X143192452Y-81938761D01*
X143097214Y-81843523D01*
X143049595Y-81653047D01*
X143049595Y-81319714D01*
X143097214Y-81129238D01*
X143192452Y-81034000D01*
X143287690Y-80986380D01*
X139509595Y-82002261D02*
X139652452Y-82049880D01*
X139890547Y-82049880D01*
X139985785Y-82002261D01*
X140033404Y-81954642D01*
X140081023Y-81859404D01*
X140081023Y-81764166D01*
X140033404Y-81668928D01*
X139985785Y-81621309D01*
X139890547Y-81573690D01*
X139700071Y-81526071D01*
X139604833Y-81478452D01*
X139557214Y-81430833D01*
X139509595Y-81335595D01*
X139509595Y-81240357D01*
X139557214Y-81145119D01*
X139604833Y-81097500D01*
X139700071Y-81049880D01*
X139938166Y-81049880D01*
X140081023Y-81097500D01*
X140700071Y-81049880D02*
X140795309Y-81049880D01*
X140890547Y-81097500D01*
X140938166Y-81145119D01*
X140985785Y-81240357D01*
X141033404Y-81430833D01*
X141033404Y-81668928D01*
X140985785Y-81859404D01*
X140938166Y-81954642D01*
X140890547Y-82002261D01*
X140795309Y-82049880D01*
X140700071Y-82049880D01*
X140604833Y-82002261D01*
X140557214Y-81954642D01*
X140509595Y-81859404D01*
X140461976Y-81668928D01*
X140461976Y-81430833D01*
X140509595Y-81240357D01*
X140557214Y-81145119D01*
X140604833Y-81097500D01*
X140700071Y-81049880D01*
X143279833Y-82966190D02*
X143279833Y-83442380D01*
X142994119Y-82870952D02*
X143994119Y-83204285D01*
X142994119Y-83537619D01*
X143660785Y-83870952D02*
X142660785Y-83870952D01*
X143613166Y-83870952D02*
X143660785Y-83966190D01*
X143660785Y-84156666D01*
X143613166Y-84251904D01*
X143565547Y-84299523D01*
X143470309Y-84347142D01*
X143184595Y-84347142D01*
X143089357Y-84299523D01*
X143041738Y-84251904D01*
X142994119Y-84156666D01*
X142994119Y-83966190D01*
X143041738Y-83870952D01*
X142994119Y-84775714D02*
X143660785Y-84775714D01*
X143470309Y-84775714D02*
X143565547Y-84823333D01*
X143613166Y-84870952D01*
X143660785Y-84966190D01*
X143660785Y-85061428D01*
X142994119Y-85394761D02*
X143660785Y-85394761D01*
X143994119Y-85394761D02*
X143946500Y-85347142D01*
X143898880Y-85394761D01*
X143946500Y-85442380D01*
X143994119Y-85394761D01*
X143898880Y-85394761D01*
X143041738Y-86299523D02*
X142994119Y-86204285D01*
X142994119Y-86013809D01*
X143041738Y-85918571D01*
X143089357Y-85870952D01*
X143184595Y-85823333D01*
X143470309Y-85823333D01*
X143565547Y-85870952D01*
X143613166Y-85918571D01*
X143660785Y-86013809D01*
X143660785Y-86204285D01*
X143613166Y-86299523D01*
X142994119Y-86870952D02*
X143041738Y-86775714D01*
X143089357Y-86728095D01*
X143184595Y-86680476D01*
X143470309Y-86680476D01*
X143565547Y-86728095D01*
X143613166Y-86775714D01*
X143660785Y-86870952D01*
X143660785Y-87013809D01*
X143613166Y-87109047D01*
X143565547Y-87156666D01*
X143470309Y-87204285D01*
X143184595Y-87204285D01*
X143089357Y-87156666D01*
X143041738Y-87109047D01*
X142994119Y-87013809D01*
X142994119Y-86870952D01*
X143660785Y-87490000D02*
X143660785Y-87870952D01*
X143994119Y-87632857D02*
X143136976Y-87632857D01*
X143041738Y-87680476D01*
X142994119Y-87775714D01*
X142994119Y-87870952D01*
X143660785Y-88823333D02*
X143660785Y-89204285D01*
X143994119Y-88966190D02*
X143136976Y-88966190D01*
X143041738Y-89013809D01*
X142994119Y-89109047D01*
X142994119Y-89204285D01*
X142994119Y-89680476D02*
X143041738Y-89585238D01*
X143089357Y-89537619D01*
X143184595Y-89490000D01*
X143470309Y-89490000D01*
X143565547Y-89537619D01*
X143613166Y-89585238D01*
X143660785Y-89680476D01*
X143660785Y-89823333D01*
X143613166Y-89918571D01*
X143565547Y-89966190D01*
X143470309Y-90013809D01*
X143184595Y-90013809D01*
X143089357Y-89966190D01*
X143041738Y-89918571D01*
X142994119Y-89823333D01*
X142994119Y-89680476D01*
X143041738Y-91156666D02*
X142994119Y-91299523D01*
X142994119Y-91537619D01*
X143041738Y-91632857D01*
X143089357Y-91680476D01*
X143184595Y-91728095D01*
X143279833Y-91728095D01*
X143375071Y-91680476D01*
X143422690Y-91632857D01*
X143470309Y-91537619D01*
X143517928Y-91347142D01*
X143565547Y-91251904D01*
X143613166Y-91204285D01*
X143708404Y-91156666D01*
X143803642Y-91156666D01*
X143898880Y-91204285D01*
X143946500Y-91251904D01*
X143994119Y-91347142D01*
X143994119Y-91585238D01*
X143946500Y-91728095D01*
X142994119Y-92156666D02*
X143994119Y-92156666D01*
X142994119Y-92585238D02*
X143517928Y-92585238D01*
X143613166Y-92537619D01*
X143660785Y-92442380D01*
X143660785Y-92299523D01*
X143613166Y-92204285D01*
X143565547Y-92156666D01*
X143660785Y-93490000D02*
X142994119Y-93490000D01*
X143660785Y-93061428D02*
X143136976Y-93061428D01*
X143041738Y-93109047D01*
X142994119Y-93204285D01*
X142994119Y-93347142D01*
X143041738Y-93442380D01*
X143089357Y-93490000D01*
X143660785Y-94394761D02*
X142851261Y-94394761D01*
X142756023Y-94347142D01*
X142708404Y-94299523D01*
X142660785Y-94204285D01*
X142660785Y-94061428D01*
X142708404Y-93966190D01*
X143041738Y-94394761D02*
X142994119Y-94299523D01*
X142994119Y-94109047D01*
X143041738Y-94013809D01*
X143089357Y-93966190D01*
X143184595Y-93918571D01*
X143470309Y-93918571D01*
X143565547Y-93966190D01*
X143613166Y-94013809D01*
X143660785Y-94109047D01*
X143660785Y-94299523D01*
X143613166Y-94394761D01*
X142994119Y-95299523D02*
X143517928Y-95299523D01*
X143613166Y-95251904D01*
X143660785Y-95156666D01*
X143660785Y-94966190D01*
X143613166Y-94870952D01*
X143041738Y-95299523D02*
X142994119Y-95204285D01*
X142994119Y-94966190D01*
X143041738Y-94870952D01*
X143136976Y-94823333D01*
X143232214Y-94823333D01*
X143327452Y-94870952D01*
X143375071Y-94966190D01*
X143375071Y-95204285D01*
X143422690Y-95299523D01*
X142994119Y-95775714D02*
X143660785Y-95775714D01*
X143470309Y-95775714D02*
X143565547Y-95823333D01*
X143613166Y-95870952D01*
X143660785Y-95966190D01*
X143660785Y-96061428D01*
X143660785Y-96251904D02*
X143660785Y-96632857D01*
X143994119Y-96394761D02*
X143136976Y-96394761D01*
X143041738Y-96442380D01*
X142994119Y-96537619D01*
X142994119Y-96632857D01*
X143660785Y-97585238D02*
X143660785Y-97966190D01*
X142994119Y-97728095D02*
X143851261Y-97728095D01*
X143946500Y-97775714D01*
X143994119Y-97870952D01*
X143994119Y-97966190D01*
X142994119Y-98442380D02*
X143041738Y-98347142D01*
X143136976Y-98299523D01*
X143994119Y-98299523D01*
X142994119Y-98966190D02*
X143041738Y-98870952D01*
X143089357Y-98823333D01*
X143184595Y-98775714D01*
X143470309Y-98775714D01*
X143565547Y-98823333D01*
X143613166Y-98870952D01*
X143660785Y-98966190D01*
X143660785Y-99109047D01*
X143613166Y-99204285D01*
X143565547Y-99251904D01*
X143470309Y-99299523D01*
X143184595Y-99299523D01*
X143089357Y-99251904D01*
X143041738Y-99204285D01*
X142994119Y-99109047D01*
X142994119Y-98966190D01*
X143660785Y-99728095D02*
X142660785Y-99728095D01*
X143613166Y-99728095D02*
X143660785Y-99823333D01*
X143660785Y-100013809D01*
X143613166Y-100109047D01*
X143565547Y-100156666D01*
X143470309Y-100204285D01*
X143184595Y-100204285D01*
X143089357Y-100156666D01*
X143041738Y-100109047D01*
X142994119Y-100013809D01*
X142994119Y-99823333D01*
X143041738Y-99728095D01*
X143660785Y-100632857D02*
X142660785Y-100632857D01*
X143613166Y-100632857D02*
X143660785Y-100728095D01*
X143660785Y-100918571D01*
X143613166Y-101013809D01*
X143565547Y-101061428D01*
X143470309Y-101109047D01*
X143184595Y-101109047D01*
X143089357Y-101061428D01*
X143041738Y-101013809D01*
X142994119Y-100918571D01*
X142994119Y-100728095D01*
X143041738Y-100632857D01*
X143660785Y-101442380D02*
X142994119Y-101680476D01*
X143660785Y-101918571D02*
X142994119Y-101680476D01*
X142756023Y-101585238D01*
X142708404Y-101537619D01*
X142660785Y-101442380D01*
X143041738Y-103490000D02*
X142994119Y-103394761D01*
X142994119Y-103204285D01*
X143041738Y-103109047D01*
X143089357Y-103061428D01*
X143184595Y-103013809D01*
X143470309Y-103013809D01*
X143565547Y-103061428D01*
X143613166Y-103109047D01*
X143660785Y-103204285D01*
X143660785Y-103394761D01*
X143613166Y-103490000D01*
X142994119Y-104347142D02*
X143517928Y-104347142D01*
X143613166Y-104299523D01*
X143660785Y-104204285D01*
X143660785Y-104013809D01*
X143613166Y-103918571D01*
X143041738Y-104347142D02*
X142994119Y-104251904D01*
X142994119Y-104013809D01*
X143041738Y-103918571D01*
X143136976Y-103870952D01*
X143232214Y-103870952D01*
X143327452Y-103918571D01*
X143375071Y-104013809D01*
X143375071Y-104251904D01*
X143422690Y-104347142D01*
X142994119Y-104823333D02*
X143994119Y-104823333D01*
X143613166Y-104823333D02*
X143660785Y-104918571D01*
X143660785Y-105109047D01*
X143613166Y-105204285D01*
X143565547Y-105251904D01*
X143470309Y-105299523D01*
X143184595Y-105299523D01*
X143089357Y-105251904D01*
X143041738Y-105204285D01*
X142994119Y-105109047D01*
X142994119Y-104918571D01*
X143041738Y-104823333D01*
X142994119Y-105870952D02*
X143041738Y-105775714D01*
X143136976Y-105728095D01*
X143994119Y-105728095D01*
X143041738Y-106632857D02*
X142994119Y-106537619D01*
X142994119Y-106347142D01*
X143041738Y-106251904D01*
X143136976Y-106204285D01*
X143517928Y-106204285D01*
X143613166Y-106251904D01*
X143660785Y-106347142D01*
X143660785Y-106537619D01*
X143613166Y-106632857D01*
X143517928Y-106680476D01*
X143422690Y-106680476D01*
X143327452Y-106204285D01*
X143041738Y-108299523D02*
X142994119Y-108204285D01*
X142994119Y-108013809D01*
X143041738Y-107918571D01*
X143089357Y-107870952D01*
X143184595Y-107823333D01*
X143470309Y-107823333D01*
X143565547Y-107870952D01*
X143613166Y-107918571D01*
X143660785Y-108013809D01*
X143660785Y-108204285D01*
X143613166Y-108299523D01*
X142994119Y-108870952D02*
X143041738Y-108775714D01*
X143089357Y-108728095D01*
X143184595Y-108680476D01*
X143470309Y-108680476D01*
X143565547Y-108728095D01*
X143613166Y-108775714D01*
X143660785Y-108870952D01*
X143660785Y-109013809D01*
X143613166Y-109109047D01*
X143565547Y-109156666D01*
X143470309Y-109204285D01*
X143184595Y-109204285D01*
X143089357Y-109156666D01*
X143041738Y-109109047D01*
X142994119Y-109013809D01*
X142994119Y-108870952D01*
X143660785Y-109632857D02*
X142994119Y-109632857D01*
X143565547Y-109632857D02*
X143613166Y-109680476D01*
X143660785Y-109775714D01*
X143660785Y-109918571D01*
X143613166Y-110013809D01*
X143517928Y-110061428D01*
X142994119Y-110061428D01*
X143660785Y-110442380D02*
X142994119Y-110680476D01*
X143660785Y-110918571D01*
X143041738Y-111680476D02*
X142994119Y-111585238D01*
X142994119Y-111394761D01*
X143041738Y-111299523D01*
X143136976Y-111251904D01*
X143517928Y-111251904D01*
X143613166Y-111299523D01*
X143660785Y-111394761D01*
X143660785Y-111585238D01*
X143613166Y-111680476D01*
X143517928Y-111728095D01*
X143422690Y-111728095D01*
X143327452Y-111251904D01*
X142994119Y-112156666D02*
X143660785Y-112156666D01*
X143470309Y-112156666D02*
X143565547Y-112204285D01*
X143613166Y-112251904D01*
X143660785Y-112347142D01*
X143660785Y-112442380D01*
X143660785Y-112632857D02*
X143660785Y-113013809D01*
X143994119Y-112775714D02*
X143136976Y-112775714D01*
X143041738Y-112823333D01*
X142994119Y-112918571D01*
X142994119Y-113013809D01*
X142994119Y-113490000D02*
X143041738Y-113394761D01*
X143089357Y-113347142D01*
X143184595Y-113299523D01*
X143470309Y-113299523D01*
X143565547Y-113347142D01*
X143613166Y-113394761D01*
X143660785Y-113490000D01*
X143660785Y-113632857D01*
X143613166Y-113728095D01*
X143565547Y-113775714D01*
X143470309Y-113823333D01*
X143184595Y-113823333D01*
X143089357Y-113775714D01*
X143041738Y-113728095D01*
X142994119Y-113632857D01*
X142994119Y-113490000D01*
X142994119Y-114251904D02*
X143660785Y-114251904D01*
X143470309Y-114251904D02*
X143565547Y-114299523D01*
X143613166Y-114347142D01*
X143660785Y-114442380D01*
X143660785Y-114537619D01*
X142994119Y-115632857D02*
X143994119Y-115632857D01*
X143279833Y-115966190D01*
X143994119Y-116299523D01*
X142994119Y-116299523D01*
X142994119Y-116775714D02*
X143994119Y-116775714D01*
X143375071Y-116870952D02*
X142994119Y-117156666D01*
X143660785Y-117156666D02*
X143279833Y-116775714D01*
X143089357Y-117585238D02*
X143041738Y-117632857D01*
X142994119Y-117585238D01*
X143041738Y-117537619D01*
X143089357Y-117585238D01*
X142994119Y-117585238D01*
X142994119Y-118061428D02*
X143994119Y-118061428D01*
X142994119Y-118537619D02*
X143994119Y-118537619D01*
X143375071Y-119775714D02*
X143375071Y-120537619D01*
X143898880Y-121728095D02*
X143946500Y-121775714D01*
X143994119Y-121870952D01*
X143994119Y-122109047D01*
X143946500Y-122204285D01*
X143898880Y-122251904D01*
X143803642Y-122299523D01*
X143708404Y-122299523D01*
X143565547Y-122251904D01*
X142994119Y-121680476D01*
X142994119Y-122299523D01*
X143994119Y-122918571D02*
X143994119Y-123013809D01*
X143946500Y-123109047D01*
X143898880Y-123156666D01*
X143803642Y-123204285D01*
X143613166Y-123251904D01*
X143375071Y-123251904D01*
X143184595Y-123204285D01*
X143089357Y-123156666D01*
X143041738Y-123109047D01*
X142994119Y-123013809D01*
X142994119Y-122918571D01*
X143041738Y-122823333D01*
X143089357Y-122775714D01*
X143184595Y-122728095D01*
X143375071Y-122680476D01*
X143613166Y-122680476D01*
X143803642Y-122728095D01*
X143898880Y-122775714D01*
X143946500Y-122823333D01*
X143994119Y-122918571D01*
X143898880Y-123632857D02*
X143946500Y-123680476D01*
X143994119Y-123775714D01*
X143994119Y-124013809D01*
X143946500Y-124109047D01*
X143898880Y-124156666D01*
X143803642Y-124204285D01*
X143708404Y-124204285D01*
X143565547Y-124156666D01*
X142994119Y-123585238D01*
X142994119Y-124204285D01*
X142994119Y-125156666D02*
X142994119Y-124585238D01*
X142994119Y-124870952D02*
X143994119Y-124870952D01*
X143851261Y-124775714D01*
X143756023Y-124680476D01*
X143708404Y-124585238D01*
X144041738Y-126299523D02*
X142756023Y-125442380D01*
X143994119Y-126537619D02*
X143994119Y-127204285D01*
X142994119Y-126775714D01*
X144041738Y-128299523D02*
X142756023Y-127442380D01*
X142994119Y-129156666D02*
X142994119Y-128585238D01*
X142994119Y-128870952D02*
X143994119Y-128870952D01*
X143851261Y-128775714D01*
X143756023Y-128680476D01*
X143708404Y-128585238D01*
X143994119Y-129775714D02*
X143994119Y-129870952D01*
X143946500Y-129966190D01*
X143898880Y-130013809D01*
X143803642Y-130061428D01*
X143613166Y-130109047D01*
X143375071Y-130109047D01*
X143184595Y-130061428D01*
X143089357Y-130013809D01*
X143041738Y-129966190D01*
X142994119Y-129870952D01*
X142994119Y-129775714D01*
X143041738Y-129680476D01*
X143089357Y-129632857D01*
X143184595Y-129585238D01*
X143375071Y-129537619D01*
X143613166Y-129537619D01*
X143803642Y-129585238D01*
X143898880Y-129632857D01*
X143946500Y-129680476D01*
X143994119Y-129775714D01*
X143041738Y-131251904D02*
X142994119Y-131394761D01*
X142994119Y-131632857D01*
X143041738Y-131728095D01*
X143089357Y-131775714D01*
X143184595Y-131823333D01*
X143279833Y-131823333D01*
X143375071Y-131775714D01*
X143422690Y-131728095D01*
X143470309Y-131632857D01*
X143517928Y-131442380D01*
X143565547Y-131347142D01*
X143613166Y-131299523D01*
X143708404Y-131251904D01*
X143803642Y-131251904D01*
X143898880Y-131299523D01*
X143946500Y-131347142D01*
X143994119Y-131442380D01*
X143994119Y-131680476D01*
X143946500Y-131823333D01*
X143089357Y-132251904D02*
X143041738Y-132299523D01*
X142994119Y-132251904D01*
X143041738Y-132204285D01*
X143089357Y-132251904D01*
X142994119Y-132251904D01*
X142994119Y-133299523D02*
X143470309Y-132966190D01*
X142994119Y-132728095D02*
X143994119Y-132728095D01*
X143994119Y-133109047D01*
X143946500Y-133204285D01*
X143898880Y-133251904D01*
X143803642Y-133299523D01*
X143660785Y-133299523D01*
X143565547Y-133251904D01*
X143517928Y-133204285D01*
X143470309Y-133109047D01*
X143470309Y-132728095D01*
X143089357Y-133728095D02*
X143041738Y-133775714D01*
X142994119Y-133728095D01*
X143041738Y-133680476D01*
X143089357Y-133728095D01*
X142994119Y-133728095D01*
X143994119Y-134204285D02*
X143184595Y-134204285D01*
X143089357Y-134251904D01*
X143041738Y-134299523D01*
X142994119Y-134394761D01*
X142994119Y-134585238D01*
X143041738Y-134680476D01*
X143089357Y-134728095D01*
X143184595Y-134775714D01*
X143994119Y-134775714D01*
X143041738Y-135204285D02*
X142994119Y-135299523D01*
X142994119Y-135490000D01*
X143041738Y-135585238D01*
X143136976Y-135632857D01*
X143184595Y-135632857D01*
X143279833Y-135585238D01*
X143327452Y-135490000D01*
X143327452Y-135347142D01*
X143375071Y-135251904D01*
X143470309Y-135204285D01*
X143517928Y-135204285D01*
X143613166Y-135251904D01*
X143660785Y-135347142D01*
X143660785Y-135490000D01*
X143613166Y-135585238D01*
X142994119Y-136061428D02*
X143994119Y-136061428D01*
X142994119Y-136490000D02*
X143517928Y-136490000D01*
X143613166Y-136442380D01*
X143660785Y-136347142D01*
X143660785Y-136204285D01*
X143613166Y-136109047D01*
X143565547Y-136061428D01*
X143041738Y-137347142D02*
X142994119Y-137251904D01*
X142994119Y-137061428D01*
X143041738Y-136966190D01*
X143136976Y-136918571D01*
X143517928Y-136918571D01*
X143613166Y-136966190D01*
X143660785Y-137061428D01*
X143660785Y-137251904D01*
X143613166Y-137347142D01*
X143517928Y-137394761D01*
X143422690Y-137394761D01*
X143327452Y-136918571D01*
X142994119Y-137823333D02*
X143660785Y-137823333D01*
X143470309Y-137823333D02*
X143565547Y-137870952D01*
X143613166Y-137918571D01*
X143660785Y-138013809D01*
X143660785Y-138109047D01*
X135358119Y-86820476D02*
X135358119Y-87439523D01*
X134977166Y-87106190D01*
X134977166Y-87249047D01*
X134929547Y-87344285D01*
X134881928Y-87391904D01*
X134786690Y-87439523D01*
X134548595Y-87439523D01*
X134453357Y-87391904D01*
X134405738Y-87344285D01*
X134358119Y-87249047D01*
X134358119Y-86963333D01*
X134405738Y-86868095D01*
X134453357Y-86820476D01*
X135024785Y-88296666D02*
X134358119Y-88296666D01*
X135405738Y-88058571D02*
X134691452Y-87820476D01*
X134691452Y-88439523D01*
X142613119Y-129254214D02*
X142613119Y-128682785D01*
X142613119Y-128968500D02*
X143613119Y-128968500D01*
X143470261Y-128873261D01*
X143375023Y-128778023D01*
X143327404Y-128682785D01*
D11*
%TO.C,J3*%
X136402000Y-77854500D02*
X136402000Y-80514500D01*
X141542000Y-77854500D02*
X136402000Y-77854500D01*
X141542000Y-80514500D02*
X136402000Y-80514500D01*
X141542000Y-77854500D02*
X141542000Y-80514500D01*
X142812000Y-77854500D02*
X144142000Y-77854500D01*
X144142000Y-77854500D02*
X144142000Y-79184500D01*
%TO.C,J2*%
X141220000Y-86236000D02*
X136020000Y-86236000D01*
X141220000Y-126936000D02*
X141220000Y-86236000D01*
X136020000Y-129536000D02*
X136020000Y-86236000D01*
X141220000Y-126936000D02*
X138620000Y-126936000D01*
X138620000Y-126936000D02*
X138620000Y-129536000D01*
X138620000Y-129536000D02*
X136020000Y-129536000D01*
X141220000Y-128206000D02*
X141220000Y-129536000D01*
X141220000Y-129536000D02*
X139890000Y-129536000D01*
%TO.C,J3*%
D10*
X144594380Y-79517833D02*
X145308666Y-79517833D01*
X145451523Y-79565452D01*
X145546761Y-79660690D01*
X145594380Y-79803547D01*
X145594380Y-79898785D01*
X144594380Y-79136880D02*
X144594380Y-78517833D01*
X144975333Y-78851166D01*
X144975333Y-78708309D01*
X145022952Y-78613071D01*
X145070571Y-78565452D01*
X145165809Y-78517833D01*
X145403904Y-78517833D01*
X145499142Y-78565452D01*
X145546761Y-78613071D01*
X145594380Y-78708309D01*
X145594380Y-78994023D01*
X145546761Y-79089261D01*
X145499142Y-79136880D01*
%TO.C,J2*%
X138286666Y-129988380D02*
X138286666Y-130702666D01*
X138239047Y-130845523D01*
X138143809Y-130940761D01*
X138000952Y-130988380D01*
X137905714Y-130988380D01*
X138715238Y-130083619D02*
X138762857Y-130036000D01*
X138858095Y-129988380D01*
X139096190Y-129988380D01*
X139191428Y-130036000D01*
X139239047Y-130083619D01*
X139286666Y-130178857D01*
X139286666Y-130274095D01*
X139239047Y-130416952D01*
X138667619Y-130988380D01*
X139286666Y-130988380D01*
%TD*%
M02*
