M48
METRIC,TZ
T1C0.400
T2C1.000
%
G90
G05
T1
X134874Y-77914
X135700Y-91504
X139129Y-137033
X141348Y-100012
X142037Y-107711
X142494Y-137922
X143383Y-113030
X144145Y-82931
X144399Y-103251
X147384Y-137160
X151225Y-141814
X152781Y-138049
T2
X137732Y-79185
X140272Y-79185
X142812Y-79185
X137350Y-140272
X137350Y-142812
X139890Y-140272
X139890Y-142812
X142430Y-140272
X142430Y-142812
X144970Y-140272
X144970Y-142812
X147510Y-140272
X147510Y-142812
X150050Y-140272
X150050Y-142812
X152590Y-140272
X152590Y-142812
X155130Y-140272
X155130Y-142812
X157670Y-140272
X157670Y-142812
X160210Y-140272
X160210Y-142812
X162750Y-140272
X162750Y-142812
X165290Y-140272
X165290Y-142812
X167830Y-140272
X167830Y-142812
X137350Y-87566
X137350Y-90106
X137350Y-92646
X137350Y-95186
X137350Y-97726
X137350Y-100266
X137350Y-102806
X137350Y-105346
X137350Y-107886
X137350Y-110426
X137350Y-112966
X137350Y-115506
X137350Y-118046
X137350Y-120586
X137350Y-123126
X137350Y-125666
X137350Y-128206
X139890Y-87566
X139890Y-90106
X139890Y-92646
X139890Y-95186
X139890Y-97726
X139890Y-100266
X139890Y-102806
X139890Y-105346
X139890Y-107886
X139890Y-110426
X139890Y-112966
X139890Y-115506
X139890Y-118046
X139890Y-120586
X139890Y-123126
X139890Y-125666
X139890Y-128206
T0
M30
