%FSLAX45Y45*%
G04 Gerber Fmt 4.5, Leading zero omitted, Abs format (unit mm)*
G04 Created by KiCad (PCBNEW (5.1.7)-1) date 2021-07-10 10:13:53*
%MOMM*%
%LPD*%
G01*
G04 APERTURE LIST*
%TA.AperFunction,Profile*%
%ADD10C,0.050000*%
%TD*%
%ADD11C,0.200000*%
%ADD12C,0.300000*%
G04 APERTURE END LIST*
D10*
X14541500Y-7620000D02*
X13335000Y-7620000D01*
X14541500Y-12446000D02*
X14541500Y-7620000D01*
X15748000Y-13716000D02*
X14541500Y-12446000D01*
X17145000Y-13716000D02*
X15748000Y-13716000D01*
X17145000Y-14478000D02*
X17145000Y-13716000D01*
X13335000Y-14478000D02*
X17145000Y-14478000D01*
X13335000Y-7620000D02*
X13335000Y-14478000D01*
D11*
X13467400Y-7771450D02*
X13507400Y-7811450D01*
X13507400Y-7771450D02*
X13467400Y-7811450D01*
X13549950Y-9130350D02*
X13589950Y-9170350D01*
X13589950Y-9130350D02*
X13549950Y-9170350D01*
X13892850Y-13683300D02*
X13932850Y-13723300D01*
X13932850Y-13683300D02*
X13892850Y-13723300D01*
X14114820Y-9981220D02*
X14154820Y-10021220D01*
X14154820Y-9981220D02*
X14114820Y-10021220D01*
X14183740Y-10751130D02*
X14223740Y-10791130D01*
X14223740Y-10751130D02*
X14183740Y-10791130D01*
X14229400Y-13772200D02*
X14269400Y-13812200D01*
X14269400Y-13772200D02*
X14229400Y-13812200D01*
X14318300Y-11283000D02*
X14358300Y-11323000D01*
X14358300Y-11283000D02*
X14318300Y-11323000D01*
X14394500Y-8273100D02*
X14434500Y-8313100D01*
X14434500Y-8273100D02*
X14394500Y-8313100D01*
X14419900Y-10305100D02*
X14459900Y-10345100D01*
X14459900Y-10305100D02*
X14419900Y-10345100D01*
X14718350Y-13696000D02*
X14758350Y-13736000D01*
X14758350Y-13696000D02*
X14718350Y-13736000D01*
X15102540Y-14161420D02*
X15142540Y-14201420D01*
X15142540Y-14161420D02*
X15102540Y-14201420D01*
X15258100Y-13784900D02*
X15298100Y-13824900D01*
X15298100Y-13784900D02*
X15258100Y-13824900D01*
X13823200Y-7918450D02*
G75*
G03*
X13823200Y-7918450I-50000J0D01*
G01*
X14077200Y-7918450D02*
G75*
G03*
X14077200Y-7918450I-50000J0D01*
G01*
X14331200Y-7918450D02*
G75*
G03*
X14331200Y-7918450I-50000J0D01*
G01*
X13785000Y-14027200D02*
G75*
G03*
X13785000Y-14027200I-50000J0D01*
G01*
X13785000Y-14281200D02*
G75*
G03*
X13785000Y-14281200I-50000J0D01*
G01*
X14039000Y-14027200D02*
G75*
G03*
X14039000Y-14027200I-50000J0D01*
G01*
X14039000Y-14281200D02*
G75*
G03*
X14039000Y-14281200I-50000J0D01*
G01*
X14293000Y-14027200D02*
G75*
G03*
X14293000Y-14027200I-50000J0D01*
G01*
X14293000Y-14281200D02*
G75*
G03*
X14293000Y-14281200I-50000J0D01*
G01*
X14547000Y-14027200D02*
G75*
G03*
X14547000Y-14027200I-50000J0D01*
G01*
X14547000Y-14281200D02*
G75*
G03*
X14547000Y-14281200I-50000J0D01*
G01*
X14801000Y-14027200D02*
G75*
G03*
X14801000Y-14027200I-50000J0D01*
G01*
X14801000Y-14281200D02*
G75*
G03*
X14801000Y-14281200I-50000J0D01*
G01*
X15055000Y-14027200D02*
G75*
G03*
X15055000Y-14027200I-50000J0D01*
G01*
X15055000Y-14281200D02*
G75*
G03*
X15055000Y-14281200I-50000J0D01*
G01*
X15309000Y-14027200D02*
G75*
G03*
X15309000Y-14027200I-50000J0D01*
G01*
X15309000Y-14281200D02*
G75*
G03*
X15309000Y-14281200I-50000J0D01*
G01*
X15563000Y-14027200D02*
G75*
G03*
X15563000Y-14027200I-50000J0D01*
G01*
X15563000Y-14281200D02*
G75*
G03*
X15563000Y-14281200I-50000J0D01*
G01*
X15817000Y-14027200D02*
G75*
G03*
X15817000Y-14027200I-50000J0D01*
G01*
X15817000Y-14281200D02*
G75*
G03*
X15817000Y-14281200I-50000J0D01*
G01*
X16071000Y-14027200D02*
G75*
G03*
X16071000Y-14027200I-50000J0D01*
G01*
X16071000Y-14281200D02*
G75*
G03*
X16071000Y-14281200I-50000J0D01*
G01*
X16325000Y-14027200D02*
G75*
G03*
X16325000Y-14027200I-50000J0D01*
G01*
X16325000Y-14281200D02*
G75*
G03*
X16325000Y-14281200I-50000J0D01*
G01*
X16579000Y-14027200D02*
G75*
G03*
X16579000Y-14027200I-50000J0D01*
G01*
X16579000Y-14281200D02*
G75*
G03*
X16579000Y-14281200I-50000J0D01*
G01*
X16833000Y-14027200D02*
G75*
G03*
X16833000Y-14027200I-50000J0D01*
G01*
X16833000Y-14281200D02*
G75*
G03*
X16833000Y-14281200I-50000J0D01*
G01*
X13785000Y-8756600D02*
G75*
G03*
X13785000Y-8756600I-50000J0D01*
G01*
X13785000Y-9010600D02*
G75*
G03*
X13785000Y-9010600I-50000J0D01*
G01*
X13785000Y-9264600D02*
G75*
G03*
X13785000Y-9264600I-50000J0D01*
G01*
X13785000Y-9518600D02*
G75*
G03*
X13785000Y-9518600I-50000J0D01*
G01*
X13785000Y-9772600D02*
G75*
G03*
X13785000Y-9772600I-50000J0D01*
G01*
X13785000Y-10026600D02*
G75*
G03*
X13785000Y-10026600I-50000J0D01*
G01*
X13785000Y-10280600D02*
G75*
G03*
X13785000Y-10280600I-50000J0D01*
G01*
X13785000Y-10534600D02*
G75*
G03*
X13785000Y-10534600I-50000J0D01*
G01*
X13785000Y-10788600D02*
G75*
G03*
X13785000Y-10788600I-50000J0D01*
G01*
X13785000Y-11042600D02*
G75*
G03*
X13785000Y-11042600I-50000J0D01*
G01*
X13785000Y-11296600D02*
G75*
G03*
X13785000Y-11296600I-50000J0D01*
G01*
X13785000Y-11550600D02*
G75*
G03*
X13785000Y-11550600I-50000J0D01*
G01*
X13785000Y-11804600D02*
G75*
G03*
X13785000Y-11804600I-50000J0D01*
G01*
X13785000Y-12058600D02*
G75*
G03*
X13785000Y-12058600I-50000J0D01*
G01*
X13785000Y-12312600D02*
G75*
G03*
X13785000Y-12312600I-50000J0D01*
G01*
X13785000Y-12566600D02*
G75*
G03*
X13785000Y-12566600I-50000J0D01*
G01*
X13785000Y-12820600D02*
G75*
G03*
X13785000Y-12820600I-50000J0D01*
G01*
X14039000Y-8756600D02*
G75*
G03*
X14039000Y-8756600I-50000J0D01*
G01*
X14039000Y-9010600D02*
G75*
G03*
X14039000Y-9010600I-50000J0D01*
G01*
X14039000Y-9264600D02*
G75*
G03*
X14039000Y-9264600I-50000J0D01*
G01*
X14039000Y-9518600D02*
G75*
G03*
X14039000Y-9518600I-50000J0D01*
G01*
X14039000Y-9772600D02*
G75*
G03*
X14039000Y-9772600I-50000J0D01*
G01*
X14039000Y-10026600D02*
G75*
G03*
X14039000Y-10026600I-50000J0D01*
G01*
X14039000Y-10280600D02*
G75*
G03*
X14039000Y-10280600I-50000J0D01*
G01*
X14039000Y-10534600D02*
G75*
G03*
X14039000Y-10534600I-50000J0D01*
G01*
X14039000Y-10788600D02*
G75*
G03*
X14039000Y-10788600I-50000J0D01*
G01*
X14039000Y-11042600D02*
G75*
G03*
X14039000Y-11042600I-50000J0D01*
G01*
X14039000Y-11296600D02*
G75*
G03*
X14039000Y-11296600I-50000J0D01*
G01*
X14039000Y-11550600D02*
G75*
G03*
X14039000Y-11550600I-50000J0D01*
G01*
X14039000Y-11804600D02*
G75*
G03*
X14039000Y-11804600I-50000J0D01*
G01*
X14039000Y-12058600D02*
G75*
G03*
X14039000Y-12058600I-50000J0D01*
G01*
X14039000Y-12312600D02*
G75*
G03*
X14039000Y-12312600I-50000J0D01*
G01*
X14039000Y-12566600D02*
G75*
G03*
X14039000Y-12566600I-50000J0D01*
G01*
X14039000Y-12820600D02*
G75*
G03*
X14039000Y-12820600I-50000J0D01*
G01*
D12*
X13618928Y-14946214D02*
X13618928Y-14646214D01*
X13690357Y-14646214D01*
X13733214Y-14660500D01*
X13761786Y-14689071D01*
X13776071Y-14717643D01*
X13790357Y-14774786D01*
X13790357Y-14817643D01*
X13776071Y-14874786D01*
X13761786Y-14903357D01*
X13733214Y-14931929D01*
X13690357Y-14946214D01*
X13618928Y-14946214D01*
X13918928Y-14946214D02*
X13918928Y-14746214D01*
X13918928Y-14803357D02*
X13933214Y-14774786D01*
X13947500Y-14760500D01*
X13976071Y-14746214D01*
X14004643Y-14746214D01*
X14104643Y-14946214D02*
X14104643Y-14746214D01*
X14104643Y-14646214D02*
X14090357Y-14660500D01*
X14104643Y-14674786D01*
X14118928Y-14660500D01*
X14104643Y-14646214D01*
X14104643Y-14674786D01*
X14290357Y-14946214D02*
X14261786Y-14931929D01*
X14247500Y-14903357D01*
X14247500Y-14646214D01*
X14447500Y-14946214D02*
X14418928Y-14931929D01*
X14404643Y-14903357D01*
X14404643Y-14646214D01*
X14790357Y-14946214D02*
X14790357Y-14646214D01*
X14890357Y-14860500D01*
X14990357Y-14646214D01*
X14990357Y-14946214D01*
X15261786Y-14946214D02*
X15261786Y-14789071D01*
X15247500Y-14760500D01*
X15218928Y-14746214D01*
X15161786Y-14746214D01*
X15133214Y-14760500D01*
X15261786Y-14931929D02*
X15233214Y-14946214D01*
X15161786Y-14946214D01*
X15133214Y-14931929D01*
X15118928Y-14903357D01*
X15118928Y-14874786D01*
X15133214Y-14846214D01*
X15161786Y-14831929D01*
X15233214Y-14831929D01*
X15261786Y-14817643D01*
X15404643Y-14746214D02*
X15404643Y-15046214D01*
X15404643Y-14760500D02*
X15433214Y-14746214D01*
X15490357Y-14746214D01*
X15518928Y-14760500D01*
X15533214Y-14774786D01*
X15547500Y-14803357D01*
X15547500Y-14889071D01*
X15533214Y-14917643D01*
X15518928Y-14931929D01*
X15490357Y-14946214D01*
X15433214Y-14946214D01*
X15404643Y-14931929D01*
X15676071Y-14917643D02*
X15690357Y-14931929D01*
X15676071Y-14946214D01*
X15661786Y-14931929D01*
X15676071Y-14917643D01*
X15676071Y-14946214D01*
X15676071Y-14760500D02*
X15690357Y-14774786D01*
X15676071Y-14789071D01*
X15661786Y-14774786D01*
X15676071Y-14760500D01*
X15676071Y-14789071D01*
X13292500Y-15420500D02*
X13332500Y-15460500D01*
X13332500Y-15420500D02*
X13292500Y-15460500D01*
X13676071Y-15276214D02*
X13704643Y-15276214D01*
X13733214Y-15290500D01*
X13747500Y-15304786D01*
X13761786Y-15333357D01*
X13776071Y-15390500D01*
X13776071Y-15461929D01*
X13761786Y-15519071D01*
X13747500Y-15547643D01*
X13733214Y-15561929D01*
X13704643Y-15576214D01*
X13676071Y-15576214D01*
X13647500Y-15561929D01*
X13633214Y-15547643D01*
X13618928Y-15519071D01*
X13604643Y-15461929D01*
X13604643Y-15390500D01*
X13618928Y-15333357D01*
X13633214Y-15304786D01*
X13647500Y-15290500D01*
X13676071Y-15276214D01*
X13904643Y-15547643D02*
X13918928Y-15561929D01*
X13904643Y-15576214D01*
X13890357Y-15561929D01*
X13904643Y-15547643D01*
X13904643Y-15576214D01*
X14176071Y-15376214D02*
X14176071Y-15576214D01*
X14104643Y-15261929D02*
X14033214Y-15476214D01*
X14218928Y-15476214D01*
X14390357Y-15276214D02*
X14418928Y-15276214D01*
X14447500Y-15290500D01*
X14461786Y-15304786D01*
X14476071Y-15333357D01*
X14490357Y-15390500D01*
X14490357Y-15461929D01*
X14476071Y-15519071D01*
X14461786Y-15547643D01*
X14447500Y-15561929D01*
X14418928Y-15576214D01*
X14390357Y-15576214D01*
X14361786Y-15561929D01*
X14347500Y-15547643D01*
X14333214Y-15519071D01*
X14318928Y-15461929D01*
X14318928Y-15390500D01*
X14333214Y-15333357D01*
X14347500Y-15304786D01*
X14361786Y-15290500D01*
X14390357Y-15276214D01*
X14618928Y-15576214D02*
X14618928Y-15376214D01*
X14618928Y-15404786D02*
X14633214Y-15390500D01*
X14661786Y-15376214D01*
X14704643Y-15376214D01*
X14733214Y-15390500D01*
X14747500Y-15419071D01*
X14747500Y-15576214D01*
X14747500Y-15419071D02*
X14761786Y-15390500D01*
X14790357Y-15376214D01*
X14833214Y-15376214D01*
X14861786Y-15390500D01*
X14876071Y-15419071D01*
X14876071Y-15576214D01*
X15018928Y-15576214D02*
X15018928Y-15376214D01*
X15018928Y-15404786D02*
X15033214Y-15390500D01*
X15061786Y-15376214D01*
X15104643Y-15376214D01*
X15133214Y-15390500D01*
X15147500Y-15419071D01*
X15147500Y-15576214D01*
X15147500Y-15419071D02*
X15161786Y-15390500D01*
X15190357Y-15376214D01*
X15233214Y-15376214D01*
X15261786Y-15390500D01*
X15276071Y-15419071D01*
X15276071Y-15576214D01*
X15861786Y-15261929D02*
X15604643Y-15647643D01*
X16247500Y-15276214D02*
X16276071Y-15276214D01*
X16304643Y-15290500D01*
X16318928Y-15304786D01*
X16333214Y-15333357D01*
X16347500Y-15390500D01*
X16347500Y-15461929D01*
X16333214Y-15519071D01*
X16318928Y-15547643D01*
X16304643Y-15561929D01*
X16276071Y-15576214D01*
X16247500Y-15576214D01*
X16218928Y-15561929D01*
X16204643Y-15547643D01*
X16190357Y-15519071D01*
X16176071Y-15461929D01*
X16176071Y-15390500D01*
X16190357Y-15333357D01*
X16204643Y-15304786D01*
X16218928Y-15290500D01*
X16247500Y-15276214D01*
X16476071Y-15547643D02*
X16490357Y-15561929D01*
X16476071Y-15576214D01*
X16461786Y-15561929D01*
X16476071Y-15547643D01*
X16476071Y-15576214D01*
X16676071Y-15276214D02*
X16704643Y-15276214D01*
X16733214Y-15290500D01*
X16747500Y-15304786D01*
X16761786Y-15333357D01*
X16776071Y-15390500D01*
X16776071Y-15461929D01*
X16761786Y-15519071D01*
X16747500Y-15547643D01*
X16733214Y-15561929D01*
X16704643Y-15576214D01*
X16676071Y-15576214D01*
X16647500Y-15561929D01*
X16633214Y-15547643D01*
X16618928Y-15519071D01*
X16604643Y-15461929D01*
X16604643Y-15390500D01*
X16618928Y-15333357D01*
X16633214Y-15304786D01*
X16647500Y-15290500D01*
X16676071Y-15276214D01*
X17061786Y-15576214D02*
X16890357Y-15576214D01*
X16976071Y-15576214D02*
X16976071Y-15276214D01*
X16947500Y-15319071D01*
X16918928Y-15347643D01*
X16890357Y-15361929D01*
X17318928Y-15276214D02*
X17261786Y-15276214D01*
X17233214Y-15290500D01*
X17218928Y-15304786D01*
X17190357Y-15347643D01*
X17176071Y-15404786D01*
X17176071Y-15519071D01*
X17190357Y-15547643D01*
X17204643Y-15561929D01*
X17233214Y-15576214D01*
X17290357Y-15576214D01*
X17318928Y-15561929D01*
X17333214Y-15547643D01*
X17347500Y-15519071D01*
X17347500Y-15447643D01*
X17333214Y-15419071D01*
X17318928Y-15404786D01*
X17290357Y-15390500D01*
X17233214Y-15390500D01*
X17204643Y-15404786D01*
X17190357Y-15419071D01*
X17176071Y-15447643D01*
X17461786Y-15276214D02*
X17461786Y-15333357D01*
X17576071Y-15276214D02*
X17576071Y-15333357D01*
X18018928Y-15690500D02*
X18004643Y-15676214D01*
X17976071Y-15633357D01*
X17961786Y-15604786D01*
X17947500Y-15561929D01*
X17933214Y-15490500D01*
X17933214Y-15433357D01*
X17947500Y-15361929D01*
X17961786Y-15319071D01*
X17976071Y-15290500D01*
X18004643Y-15247643D01*
X18018928Y-15233357D01*
X18290357Y-15576214D02*
X18118928Y-15576214D01*
X18204643Y-15576214D02*
X18204643Y-15276214D01*
X18176071Y-15319071D01*
X18147500Y-15347643D01*
X18118928Y-15361929D01*
X18404643Y-15304786D02*
X18418928Y-15290500D01*
X18447500Y-15276214D01*
X18518928Y-15276214D01*
X18547500Y-15290500D01*
X18561786Y-15304786D01*
X18576071Y-15333357D01*
X18576071Y-15361929D01*
X18561786Y-15404786D01*
X18390357Y-15576214D01*
X18576071Y-15576214D01*
X18933214Y-15576214D02*
X18933214Y-15276214D01*
X19061786Y-15576214D02*
X19061786Y-15419071D01*
X19047500Y-15390500D01*
X19018928Y-15376214D01*
X18976071Y-15376214D01*
X18947500Y-15390500D01*
X18933214Y-15404786D01*
X19247500Y-15576214D02*
X19218928Y-15561929D01*
X19204643Y-15547643D01*
X19190357Y-15519071D01*
X19190357Y-15433357D01*
X19204643Y-15404786D01*
X19218928Y-15390500D01*
X19247500Y-15376214D01*
X19290357Y-15376214D01*
X19318928Y-15390500D01*
X19333214Y-15404786D01*
X19347500Y-15433357D01*
X19347500Y-15519071D01*
X19333214Y-15547643D01*
X19318928Y-15561929D01*
X19290357Y-15576214D01*
X19247500Y-15576214D01*
X19518928Y-15576214D02*
X19490357Y-15561929D01*
X19476071Y-15533357D01*
X19476071Y-15276214D01*
X19747500Y-15561929D02*
X19718928Y-15576214D01*
X19661786Y-15576214D01*
X19633214Y-15561929D01*
X19618928Y-15533357D01*
X19618928Y-15419071D01*
X19633214Y-15390500D01*
X19661786Y-15376214D01*
X19718928Y-15376214D01*
X19747500Y-15390500D01*
X19761786Y-15419071D01*
X19761786Y-15447643D01*
X19618928Y-15476214D01*
X19876071Y-15561929D02*
X19904643Y-15576214D01*
X19961786Y-15576214D01*
X19990357Y-15561929D01*
X20004643Y-15533357D01*
X20004643Y-15519071D01*
X19990357Y-15490500D01*
X19961786Y-15476214D01*
X19918928Y-15476214D01*
X19890357Y-15461929D01*
X19876071Y-15433357D01*
X19876071Y-15419071D01*
X19890357Y-15390500D01*
X19918928Y-15376214D01*
X19961786Y-15376214D01*
X19990357Y-15390500D01*
X20104643Y-15690500D02*
X20118928Y-15676214D01*
X20147500Y-15633357D01*
X20161786Y-15604786D01*
X20176071Y-15561929D01*
X20190357Y-15490500D01*
X20190357Y-15433357D01*
X20176071Y-15361929D01*
X20161786Y-15319071D01*
X20147500Y-15290500D01*
X20118928Y-15247643D01*
X20104643Y-15233357D01*
X13332500Y-15836500D02*
G75*
G03*
X13332500Y-15836500I-50000J0D01*
G01*
X13776071Y-15972214D02*
X13604643Y-15972214D01*
X13690357Y-15972214D02*
X13690357Y-15672214D01*
X13661786Y-15715071D01*
X13633214Y-15743643D01*
X13604643Y-15757929D01*
X13904643Y-15943643D02*
X13918928Y-15957929D01*
X13904643Y-15972214D01*
X13890357Y-15957929D01*
X13904643Y-15943643D01*
X13904643Y-15972214D01*
X14104643Y-15672214D02*
X14133214Y-15672214D01*
X14161786Y-15686500D01*
X14176071Y-15700786D01*
X14190357Y-15729357D01*
X14204643Y-15786500D01*
X14204643Y-15857929D01*
X14190357Y-15915071D01*
X14176071Y-15943643D01*
X14161786Y-15957929D01*
X14133214Y-15972214D01*
X14104643Y-15972214D01*
X14076071Y-15957929D01*
X14061786Y-15943643D01*
X14047500Y-15915071D01*
X14033214Y-15857929D01*
X14033214Y-15786500D01*
X14047500Y-15729357D01*
X14061786Y-15700786D01*
X14076071Y-15686500D01*
X14104643Y-15672214D01*
X14390357Y-15672214D02*
X14418928Y-15672214D01*
X14447500Y-15686500D01*
X14461786Y-15700786D01*
X14476071Y-15729357D01*
X14490357Y-15786500D01*
X14490357Y-15857929D01*
X14476071Y-15915071D01*
X14461786Y-15943643D01*
X14447500Y-15957929D01*
X14418928Y-15972214D01*
X14390357Y-15972214D01*
X14361786Y-15957929D01*
X14347500Y-15943643D01*
X14333214Y-15915071D01*
X14318928Y-15857929D01*
X14318928Y-15786500D01*
X14333214Y-15729357D01*
X14347500Y-15700786D01*
X14361786Y-15686500D01*
X14390357Y-15672214D01*
X14618928Y-15972214D02*
X14618928Y-15772214D01*
X14618928Y-15800786D02*
X14633214Y-15786500D01*
X14661786Y-15772214D01*
X14704643Y-15772214D01*
X14733214Y-15786500D01*
X14747500Y-15815071D01*
X14747500Y-15972214D01*
X14747500Y-15815071D02*
X14761786Y-15786500D01*
X14790357Y-15772214D01*
X14833214Y-15772214D01*
X14861786Y-15786500D01*
X14876071Y-15815071D01*
X14876071Y-15972214D01*
X15018928Y-15972214D02*
X15018928Y-15772214D01*
X15018928Y-15800786D02*
X15033214Y-15786500D01*
X15061786Y-15772214D01*
X15104643Y-15772214D01*
X15133214Y-15786500D01*
X15147500Y-15815071D01*
X15147500Y-15972214D01*
X15147500Y-15815071D02*
X15161786Y-15786500D01*
X15190357Y-15772214D01*
X15233214Y-15772214D01*
X15261786Y-15786500D01*
X15276071Y-15815071D01*
X15276071Y-15972214D01*
X15861786Y-15657929D02*
X15604643Y-16043643D01*
X16247500Y-15672214D02*
X16276071Y-15672214D01*
X16304643Y-15686500D01*
X16318928Y-15700786D01*
X16333214Y-15729357D01*
X16347500Y-15786500D01*
X16347500Y-15857929D01*
X16333214Y-15915071D01*
X16318928Y-15943643D01*
X16304643Y-15957929D01*
X16276071Y-15972214D01*
X16247500Y-15972214D01*
X16218928Y-15957929D01*
X16204643Y-15943643D01*
X16190357Y-15915071D01*
X16176071Y-15857929D01*
X16176071Y-15786500D01*
X16190357Y-15729357D01*
X16204643Y-15700786D01*
X16218928Y-15686500D01*
X16247500Y-15672214D01*
X16476071Y-15943643D02*
X16490357Y-15957929D01*
X16476071Y-15972214D01*
X16461786Y-15957929D01*
X16476071Y-15943643D01*
X16476071Y-15972214D01*
X16676071Y-15672214D02*
X16704643Y-15672214D01*
X16733214Y-15686500D01*
X16747500Y-15700786D01*
X16761786Y-15729357D01*
X16776071Y-15786500D01*
X16776071Y-15857929D01*
X16761786Y-15915071D01*
X16747500Y-15943643D01*
X16733214Y-15957929D01*
X16704643Y-15972214D01*
X16676071Y-15972214D01*
X16647500Y-15957929D01*
X16633214Y-15943643D01*
X16618928Y-15915071D01*
X16604643Y-15857929D01*
X16604643Y-15786500D01*
X16618928Y-15729357D01*
X16633214Y-15700786D01*
X16647500Y-15686500D01*
X16676071Y-15672214D01*
X16876071Y-15672214D02*
X17061786Y-15672214D01*
X16961786Y-15786500D01*
X17004643Y-15786500D01*
X17033214Y-15800786D01*
X17047500Y-15815071D01*
X17061786Y-15843643D01*
X17061786Y-15915071D01*
X17047500Y-15943643D01*
X17033214Y-15957929D01*
X17004643Y-15972214D01*
X16918928Y-15972214D01*
X16890357Y-15957929D01*
X16876071Y-15943643D01*
X17204643Y-15972214D02*
X17261786Y-15972214D01*
X17290357Y-15957929D01*
X17304643Y-15943643D01*
X17333214Y-15900786D01*
X17347500Y-15843643D01*
X17347500Y-15729357D01*
X17333214Y-15700786D01*
X17318928Y-15686500D01*
X17290357Y-15672214D01*
X17233214Y-15672214D01*
X17204643Y-15686500D01*
X17190357Y-15700786D01*
X17176071Y-15729357D01*
X17176071Y-15800786D01*
X17190357Y-15829357D01*
X17204643Y-15843643D01*
X17233214Y-15857929D01*
X17290357Y-15857929D01*
X17318928Y-15843643D01*
X17333214Y-15829357D01*
X17347500Y-15800786D01*
X17461786Y-15672214D02*
X17461786Y-15729357D01*
X17576071Y-15672214D02*
X17576071Y-15729357D01*
X18018928Y-16086500D02*
X18004643Y-16072214D01*
X17976071Y-16029357D01*
X17961786Y-16000786D01*
X17947500Y-15957929D01*
X17933214Y-15886500D01*
X17933214Y-15829357D01*
X17947500Y-15757929D01*
X17961786Y-15715071D01*
X17976071Y-15686500D01*
X18004643Y-15643643D01*
X18018928Y-15629357D01*
X18261786Y-15672214D02*
X18204643Y-15672214D01*
X18176071Y-15686500D01*
X18161786Y-15700786D01*
X18133214Y-15743643D01*
X18118928Y-15800786D01*
X18118928Y-15915071D01*
X18133214Y-15943643D01*
X18147500Y-15957929D01*
X18176071Y-15972214D01*
X18233214Y-15972214D01*
X18261786Y-15957929D01*
X18276071Y-15943643D01*
X18290357Y-15915071D01*
X18290357Y-15843643D01*
X18276071Y-15815071D01*
X18261786Y-15800786D01*
X18233214Y-15786500D01*
X18176071Y-15786500D01*
X18147500Y-15800786D01*
X18133214Y-15815071D01*
X18118928Y-15843643D01*
X18390357Y-15672214D02*
X18576071Y-15672214D01*
X18476071Y-15786500D01*
X18518928Y-15786500D01*
X18547500Y-15800786D01*
X18561786Y-15815071D01*
X18576071Y-15843643D01*
X18576071Y-15915071D01*
X18561786Y-15943643D01*
X18547500Y-15957929D01*
X18518928Y-15972214D01*
X18433214Y-15972214D01*
X18404643Y-15957929D01*
X18390357Y-15943643D01*
X18933214Y-15972214D02*
X18933214Y-15672214D01*
X19061786Y-15972214D02*
X19061786Y-15815071D01*
X19047500Y-15786500D01*
X19018928Y-15772214D01*
X18976071Y-15772214D01*
X18947500Y-15786500D01*
X18933214Y-15800786D01*
X19247500Y-15972214D02*
X19218928Y-15957929D01*
X19204643Y-15943643D01*
X19190357Y-15915071D01*
X19190357Y-15829357D01*
X19204643Y-15800786D01*
X19218928Y-15786500D01*
X19247500Y-15772214D01*
X19290357Y-15772214D01*
X19318928Y-15786500D01*
X19333214Y-15800786D01*
X19347500Y-15829357D01*
X19347500Y-15915071D01*
X19333214Y-15943643D01*
X19318928Y-15957929D01*
X19290357Y-15972214D01*
X19247500Y-15972214D01*
X19518928Y-15972214D02*
X19490357Y-15957929D01*
X19476071Y-15929357D01*
X19476071Y-15672214D01*
X19747500Y-15957929D02*
X19718928Y-15972214D01*
X19661786Y-15972214D01*
X19633214Y-15957929D01*
X19618928Y-15929357D01*
X19618928Y-15815071D01*
X19633214Y-15786500D01*
X19661786Y-15772214D01*
X19718928Y-15772214D01*
X19747500Y-15786500D01*
X19761786Y-15815071D01*
X19761786Y-15843643D01*
X19618928Y-15872214D01*
X19876071Y-15957929D02*
X19904643Y-15972214D01*
X19961786Y-15972214D01*
X19990357Y-15957929D01*
X20004643Y-15929357D01*
X20004643Y-15915071D01*
X19990357Y-15886500D01*
X19961786Y-15872214D01*
X19918928Y-15872214D01*
X19890357Y-15857929D01*
X19876071Y-15829357D01*
X19876071Y-15815071D01*
X19890357Y-15786500D01*
X19918928Y-15772214D01*
X19961786Y-15772214D01*
X19990357Y-15786500D01*
X20104643Y-16086500D02*
X20118928Y-16072214D01*
X20147500Y-16029357D01*
X20161786Y-16000786D01*
X20176071Y-15957929D01*
X20190357Y-15886500D01*
X20190357Y-15829357D01*
X20176071Y-15757929D01*
X20161786Y-15715071D01*
X20147500Y-15686500D01*
X20118928Y-15643643D01*
X20104643Y-15629357D01*
M02*
