%TF.GenerationSoftware,KiCad,Pcbnew,(5.1.7)-1*%
%TF.CreationDate,2021-07-10T10:13:49+01:00*%
%TF.ProjectId,Apricot-Floppy-Converter,41707269-636f-4742-9d46-6c6f7070792d,rev?*%
%TF.SameCoordinates,Original*%
%TF.FileFunction,Soldermask,Top*%
%TF.FilePolarity,Negative*%
%FSLAX46Y46*%
G04 Gerber Fmt 4.6, Leading zero omitted, Abs format (unit mm)*
G04 Created by KiCad (PCBNEW (5.1.7)-1) date 2021-07-10 10:13:49*
%MOMM*%
%LPD*%
G01*
G04 APERTURE LIST*
%ADD10O,1.700000X1.700000*%
%ADD11R,1.700000X1.700000*%
G04 APERTURE END LIST*
D10*
%TO.C,J3*%
X137732000Y-79184500D03*
X140272000Y-79184500D03*
D11*
X142812000Y-79184500D03*
%TD*%
D10*
%TO.C,J2*%
X137350000Y-87566000D03*
X139890000Y-87566000D03*
X137350000Y-90106000D03*
X139890000Y-90106000D03*
X137350000Y-92646000D03*
X139890000Y-92646000D03*
X137350000Y-95186000D03*
X139890000Y-95186000D03*
X137350000Y-97726000D03*
X139890000Y-97726000D03*
X137350000Y-100266000D03*
X139890000Y-100266000D03*
X137350000Y-102806000D03*
X139890000Y-102806000D03*
X137350000Y-105346000D03*
X139890000Y-105346000D03*
X137350000Y-107886000D03*
X139890000Y-107886000D03*
X137350000Y-110426000D03*
X139890000Y-110426000D03*
X137350000Y-112966000D03*
X139890000Y-112966000D03*
X137350000Y-115506000D03*
X139890000Y-115506000D03*
X137350000Y-118046000D03*
X139890000Y-118046000D03*
X137350000Y-120586000D03*
X139890000Y-120586000D03*
X137350000Y-123126000D03*
X139890000Y-123126000D03*
X137350000Y-125666000D03*
X139890000Y-125666000D03*
X137350000Y-128206000D03*
D11*
X139890000Y-128206000D03*
%TD*%
D10*
%TO.C,J1*%
X137350000Y-142812000D03*
X137350000Y-140272000D03*
X139890000Y-142812000D03*
X139890000Y-140272000D03*
X142430000Y-142812000D03*
X142430000Y-140272000D03*
X144970000Y-142812000D03*
X144970000Y-140272000D03*
X147510000Y-142812000D03*
X147510000Y-140272000D03*
X150050000Y-142812000D03*
X150050000Y-140272000D03*
X152590000Y-142812000D03*
X152590000Y-140272000D03*
X155130000Y-142812000D03*
X155130000Y-140272000D03*
X157670000Y-142812000D03*
X157670000Y-140272000D03*
X160210000Y-142812000D03*
X160210000Y-140272000D03*
X162750000Y-142812000D03*
X162750000Y-140272000D03*
X165290000Y-142812000D03*
X165290000Y-140272000D03*
X167830000Y-142812000D03*
D11*
X167830000Y-140272000D03*
%TD*%
M02*
